# Blender 4.4.1
# www.blender.org
mtllib player.mtl
o 立方体.002
v -0.461935 0.294697 0.356289
v -0.461935 0.294697 -0.356289
v 0.461935 0.294697 0.356289
v 0.461935 0.294697 -0.356289
v -0.434678 -0.401003 0.335265
v -0.434678 -0.401003 -0.335266
v 0.434678 -0.401003 -0.335266
v 0.434678 -0.401003 0.335265
v -0.449002 -0.281284 0.346314
v -0.456726 -0.166787 0.352271
v -0.459388 -0.060684 0.354324
v -0.458864 0.036094 0.353920
v -0.457362 0.124849 0.352761
v -0.457425 0.209124 0.352811
v -0.457425 0.209124 -0.352811
v -0.457362 0.124849 -0.352761
v -0.458864 0.036094 -0.353920
v -0.459388 -0.060684 -0.354325
v -0.456726 -0.166787 -0.352271
v -0.449002 -0.281284 -0.346314
v 0.457425 0.209124 -0.352811
v 0.457362 0.124849 -0.352761
v 0.458864 0.036094 -0.353920
v 0.459388 -0.060684 -0.354325
v 0.456726 -0.166787 -0.352271
v 0.449002 -0.281284 -0.346314
v 0.457425 0.209124 0.352811
v 0.457362 0.124849 0.352761
v 0.458864 0.036094 0.353920
v 0.459388 -0.060684 0.354324
v 0.456726 -0.166787 0.352271
v 0.449002 -0.281284 0.346314
v -0.330326 0.295480 -0.356690
v -0.197680 0.293670 -0.355763
v -0.065636 0.290957 -0.354374
v 0.065636 0.290957 -0.354374
v 0.197680 0.293670 -0.355763
v 0.330326 0.295480 -0.356690
v 0.330326 0.295480 0.356690
v 0.197680 0.293670 0.355763
v 0.065636 0.290957 0.354373
v -0.065636 0.290957 0.354373
v -0.197680 0.293670 0.355763
v -0.330326 0.295480 0.356690
v 0.307873 -0.401003 0.332445
v 0.180617 -0.401003 0.325054
v 0.058287 -0.401003 0.314697
v -0.058287 -0.401003 0.314697
v -0.180617 -0.401003 0.325054
v -0.307873 -0.401003 0.332445
v -0.307873 -0.401003 -0.332445
v -0.180617 -0.401003 -0.325054
v -0.058287 -0.401003 -0.314698
v 0.058287 -0.401003 -0.314698
v 0.180617 -0.401003 -0.325054
v 0.307873 -0.401003 -0.332445
v 0.318739 -0.282022 0.344180
v 0.187191 -0.284543 0.336887
v 0.060410 -0.288252 0.326158
v -0.060410 -0.288252 0.326158
v -0.187191 -0.284543 0.336887
v -0.318739 -0.282022 0.344180
v 0.324998 -0.167674 0.350937
v 0.428166 -0.401003 -0.164141
v 0.433371 -0.401003 -0.261639
v -0.324998 -0.167674 0.350937
v 0.327576 -0.061262 0.353722
v -0.327576 -0.061262 0.353722
v 0.327754 0.036086 0.353913
v 0.462154 0.295026 0.230209
v 0.461226 0.293629 0.128105
v 0.459851 0.291558 0.026387
v 0.460511 0.292552 -0.075059
v -0.327754 0.036086 0.353913
v 0.327056 0.125443 0.353159
v 0.461772 0.294451 -0.177025
v 0.462263 0.295191 -0.279083
v -0.327056 0.125443 0.353159
v 0.327246 0.210082 0.353365
v 0.195158 0.206379 0.351223
v 0.064334 0.199661 0.347338
v -0.064334 0.199661 0.347338
v -0.195158 0.206379 0.351223
v -0.327246 0.210082 0.353365
v -0.318739 -0.282022 -0.344180
v -0.187191 -0.284543 -0.336887
v -0.060410 -0.288252 -0.326158
v 0.060410 -0.288252 -0.326158
v 0.187191 -0.284543 -0.336887
v 0.318739 -0.282022 -0.344180
v -0.324998 -0.167674 -0.350938
v 0.324998 -0.167674 -0.350938
v -0.327576 -0.061262 -0.353722
v -0.462263 0.295191 -0.279083
v -0.461772 0.294451 -0.177025
v -0.460511 0.292552 -0.075059
v -0.459851 0.291558 0.026387
v 0.327576 -0.061262 -0.353722
v -0.327754 0.036086 -0.353914
v -0.461226 0.293629 0.128105
v -0.462154 0.295026 0.230209
v 0.327754 0.036086 -0.353914
v -0.327056 0.125443 -0.353159
v 0.327056 0.125443 -0.353159
v -0.327246 0.210082 -0.353365
v -0.195158 0.206379 -0.351223
v -0.064334 0.199661 -0.347339
v 0.064334 0.199661 -0.347339
v 0.195158 0.206379 -0.351223
v 0.327246 0.210082 -0.353365
v 0.419878 -0.401003 -0.068436
v 0.415093 -0.401003 0.023819
v 0.424520 -0.401003 0.117910
v 0.431322 -0.401003 0.214849
v -0.431322 -0.401003 0.214849
v -0.424520 -0.401003 0.117910
v -0.415093 -0.401003 0.023819
v -0.419878 -0.401003 -0.068436
v -0.428166 -0.401003 -0.164141
v -0.433371 -0.401003 -0.261639
v 0.448151 -0.281511 -0.270563
v 0.443204 -0.282830 -0.169906
v 0.434752 -0.285084 -0.070860
v 0.429776 -0.286410 0.024660
v 0.439525 -0.283811 0.122078
v 0.446282 -0.282009 0.222303
v 0.456345 -0.166983 -0.275509
v 0.454793 -0.167778 0.226542
v 0.459412 -0.060666 -0.277361
v 0.458200 -0.061564 0.228238
v 0.459195 0.036410 -0.277229
v 0.458315 0.035571 0.228296
v 0.457870 0.125433 -0.276431
v 0.457296 0.124773 0.227788
v 0.457945 0.209816 -0.276476
v 0.456755 0.208230 -0.175103
v 0.453757 0.204231 -0.073958
v 0.451905 0.201761 0.025930
v 0.455504 0.206561 0.126516
v 0.457633 0.209401 0.227957
v -0.446282 -0.282009 0.222303
v -0.439525 -0.283811 0.122078
v -0.429776 -0.286410 0.024660
v -0.434752 -0.285084 -0.070860
v -0.443204 -0.282830 -0.169906
v -0.448151 -0.281511 -0.270563
v -0.454793 -0.167778 0.226542
v -0.456345 -0.166983 -0.275509
v -0.458200 -0.061564 0.228238
v -0.459412 -0.060666 -0.277361
v -0.458315 0.035571 0.228296
v -0.459195 0.036410 -0.277229
v -0.457296 0.124773 0.227788
v -0.457870 0.125433 -0.276431
v -0.457633 0.209401 0.227957
v -0.455504 0.206561 0.126516
v -0.451905 0.201761 0.025930
v -0.453757 0.204231 -0.073958
v -0.456755 0.208230 -0.175103
v -0.457945 0.209816 -0.276476
v 0.330581 0.296017 -0.279414
v 0.330198 0.295212 -0.177218
v 0.329202 0.293110 -0.075120
v 0.328663 0.291974 0.026403
v 0.329770 0.294309 0.128231
v 0.330496 0.295839 0.230477
v 0.197802 0.294101 -0.278646
v 0.197619 0.293457 -0.176771
v 0.197162 0.291850 -0.074983
v 0.196938 0.291062 0.026368
v 0.197418 0.292751 0.127943
v 0.197761 0.293957 0.229855
v 0.065654 0.291141 -0.277459
v 0.065628 0.290871 -0.176113
v 0.065585 0.290411 -0.074827
v 0.065582 0.290383 0.026342
v 0.065605 0.290621 0.127550
v 0.065648 0.291078 0.228903
v -0.065654 0.291141 -0.277459
v -0.065628 0.290871 -0.176113
v -0.065585 0.290411 -0.074827
v -0.065582 0.290383 0.026342
v -0.065605 0.290621 0.127550
v -0.065648 0.291078 0.228903
v -0.197802 0.294101 -0.278646
v -0.197619 0.293457 -0.176771
v -0.197162 0.291850 -0.074983
v -0.196938 0.291062 0.026368
v -0.197418 0.292751 0.127943
v -0.197761 0.293957 0.229855
v -0.330581 0.296017 -0.279414
v -0.330198 0.295212 -0.177218
v -0.329202 0.293110 -0.075120
v -0.328663 0.291974 0.026403
v -0.329770 0.294309 0.128231
v -0.330496 0.295839 0.230477
v -0.215469 0.005319 0.083496
v -0.215469 0.005319 -0.083496
v 0.215469 0.005319 -0.083496
v 0.215469 0.005319 0.083496
v 0.000000 -0.221061 -0.070255
v 0.000000 -0.221061 0.070254
v -0.208793 0.097127 0.080909
v -0.208793 0.097127 -0.080909
v 0.208793 0.097127 -0.080909
v 0.208793 0.097127 0.080909
v 0.000000 0.083659 0.078722
v 0.000000 0.083659 -0.078722
v 0.066961 0.178701 -0.077845
v 0.134695 0.182040 -0.078293
v 0.134695 0.182040 0.078293
v 0.066961 0.178701 0.077844
v -0.066961 0.178701 0.077844
v -0.134695 0.182040 0.078293
v -0.134695 0.182040 -0.078293
v -0.066961 0.178701 -0.077845
v 0.000000 -0.280971 -0.000000
v 0.283149 0.001708 -0.000000
v -0.283149 0.001708 -0.000000
v 0.272453 0.122722 -0.000000
v -0.272453 0.122722 -0.000000
v 0.176101 0.238838 -0.000000
v 0.087801 0.237033 -0.000000
v -0.087801 0.237033 -0.000000
v -0.176101 0.238838 -0.000000
v 0.000000 0.110145 -0.000000
vn -0.7265 0.6872 0.0001
vn -0.7045 -0.0331 -0.7089
vn -0.9994 -0.0353 -0.0018
vn -0.0037 0.6918 -0.7221
vn 0.7045 -0.0331 -0.7089
vn -0.0008 -0.0282 -0.9996
vn 0.7268 0.6868 -0.0066
vn 0.7061 -0.0336 0.7074
vn 0.9993 -0.0381 -0.0039
vn 0.0037 0.6933 0.7207
vn -0.7061 -0.0336 0.7074
vn 0.0008 -0.0282 0.9996
vn -0.7269 0.6868 -0.0064
vn 0.0040 1.0000 -0.0060
vn 0.0380 0.5070 0.8611
vn -0.7003 0.0515 0.7120
vn 0.0399 0.0303 0.9987
vn 0.0116 -0.0409 0.9991
vn -0.6865 0.2631 0.6779
vn 0.0426 0.5438 0.8381
vn 0.0061 -0.0126 0.9999
vn -0.7085 -0.0592 0.7032
vn 0.0014 0.0045 1.0000
vn -0.7094 -0.0140 0.7046
vn -0.0021 0.0039 1.0000
vn -0.7088 0.0126 0.7053
vn -0.7078 0.0095 0.7064
vn 0.8737 0.4845 -0.0448
vn 0.7003 0.0516 0.7120
vn 0.9980 0.0401 -0.0487
vn 0.9985 -0.0514 -0.0167
vn 0.6865 0.2631 0.6779
vn 0.8431 0.5364 -0.0387
vn 0.9998 -0.0151 -0.0110
vn 0.7085 -0.0592 0.7032
vn 1.0000 0.0065 -0.0059
vn 0.7094 -0.0140 0.7046
vn 1.0000 0.0048 -0.0017
vn 0.7088 0.0126 0.7053
vn 0.7078 0.0095 0.7064
vn -0.0381 0.5070 -0.8611
vn 0.6968 0.0518 -0.7154
vn -0.0399 0.0303 -0.9987
vn -0.0116 -0.0409 -0.9991
vn 0.6820 0.2633 -0.6823
vn -0.0426 0.5438 -0.8381
vn -0.0061 -0.0126 -0.9999
vn 0.7052 -0.0589 -0.7065
vn -0.0014 0.0045 -1.0000
vn 0.7063 -0.0137 -0.7078
vn 0.0021 0.0039 -1.0000
vn 0.7059 0.0129 -0.7082
vn 0.7054 0.0100 -0.7087
vn -0.8734 0.4861 0.0297
vn -0.6968 0.0518 -0.7154
vn -0.9985 0.0412 0.0350
vn -0.9988 -0.0490 0.0060
vn -0.6820 0.2633 -0.6823
vn -0.8410 0.5398 0.0359
vn -0.9999 -0.0122 0.0007
vn -0.7052 -0.0589 -0.7065
vn -0.9999 0.0095 -0.0035
vn -0.7063 -0.0137 -0.7078
vn -1.0000 0.0075 -0.0062
vn -0.7059 0.0129 -0.7082
vn -0.7054 0.0100 -0.7087
vn 0.0008 -0.0282 -0.9996
vn -0.0021 0.0039 -1.0000
vn 0.0109 0.9999 -0.0001
vn -0.0085 1.0000 0.0048
vn -0.0108 0.9999 0.0005
vn 0.0149 0.6789 -0.7341
vn -0.0153 0.6787 -0.7343
vn 0.0140 0.9998 -0.0141
vn 0.0101 0.9999 -0.0025
vn 0.0065 1.0000 -0.0049
vn 0.0080 1.0000 -0.0026
vn 0.0034 1.0000 -0.0003
vn 0.0099 0.9999 0.0115
vn 0.0067 1.0000 0.0036
vn 0.0014 0.0045 -1.0000
vn 0.0153 0.9998 0.0100
vn 0.0102 0.9999 0.0040
vn 0.0179 0.9998 -0.0001
vn 0.0205 0.6879 -0.7255
vn 0.0039 0.9998 -0.0183
vn 0.0174 0.9998 -0.0052
vn 0.0025 1.0000 -0.0053
vn 0.0061 -0.0126 -0.9999
vn 0.0021 0.9999 0.0153
vn 0.0031 0.9999 0.0136
vn 0.0039 1.0000 0.0003
vn 0.0039 0.6919 -0.7220
vn 0.0116 -0.0409 -0.9991
vn 0.0426 0.5438 -0.8381
vn 0.0381 0.5070 -0.8611
vn 0.0399 0.0303 -0.9987
vn 0.0696 0.6784 -0.7314
vn 0.0709 0.0281 -0.9971
vn 0.0373 0.6795 -0.7327
vn 0.0416 0.0225 -0.9989
vn -0.0416 0.0225 -0.9989
vn -0.0373 0.6796 -0.7327
vn -0.0709 0.0281 -0.9971
vn -0.0696 0.6784 -0.7314
vn -0.0008 -0.0282 0.9996
vn 0.0021 0.0039 1.0000
vn -0.0014 0.0045 1.0000
vn -0.0061 -0.0126 0.9999
vn -0.0116 -0.0409 0.9991
vn -0.0426 0.5438 0.8381
vn -0.0380 0.5070 0.8611
vn -0.0399 0.0303 0.9987
vn -0.0696 0.6783 0.7315
vn -0.0709 0.0281 0.9971
vn -0.0373 0.6796 0.7327
vn -0.0416 0.0225 0.9989
vn 0.0416 0.0225 0.9989
vn 0.0373 0.6796 0.7327
vn 0.0709 0.0281 0.9971
vn 0.0696 0.6783 0.7315
vn -0.0037 1.0000 -0.0057
vn 0.5933 0.5503 0.5876
vn -0.0171 0.9998 -0.0039
vn -0.0038 0.6933 0.7206
vn -0.0107 0.9999 -0.0016
vn -0.0203 0.6890 0.7244
vn -0.0149 0.6794 0.7336
vn 0.0151 0.6793 0.7337
vn 0.0202 0.6889 0.7246
vn -0.0152 -0.0565 0.9983
vn -0.0125 -0.0766 0.9970
vn 0.0125 -0.0766 0.9970
vn 0.0152 -0.0565 0.9983
vn 0.0152 -0.0565 -0.9983
vn 0.0125 -0.0766 -0.9970
vn -0.0125 -0.0766 -0.9970
vn -0.0152 -0.0565 -0.9983
vn -0.0203 0.6876 -0.7258
vn -0.0046 1.0000 0.0032
vn -0.0042 1.0000 -0.0025
vn -0.0089 1.0000 -0.0042
vn -0.0179 0.9998 0.0008
vn -0.0162 0.9998 0.0111
vn -0.0111 0.9999 0.0109
vn -0.0076 1.0000 -0.0058
vn -0.0127 0.9998 -0.0130
vn -0.0040 1.0000 0.0005
vn -0.0041 0.9999 0.0138
vn -0.0033 0.9999 0.0152
vn -0.0020 1.0000 -0.0060
vn -0.0024 0.9998 -0.0181
vn 0.7265 0.6872 -0.0000
vn 0.5927 0.5492 -0.5892
vn 0.7281 0.6852 0.0165
vn 0.7339 0.6789 0.0202
vn 0.7374 0.6754 -0.0079
vn 0.7300 0.6831 -0.0225
vn -0.9993 -0.0381 -0.0039
vn -1.0000 0.0048 -0.0017
vn -1.0000 0.0065 -0.0059
vn -0.9998 -0.0151 -0.0110
vn -0.9985 -0.0514 -0.0167
vn -0.8431 0.5364 -0.0387
vn -0.8737 0.4845 -0.0448
vn -0.9980 0.0401 -0.0487
vn -0.7411 0.6667 -0.0786
vn -0.9957 0.0381 -0.0844
vn -0.7332 0.6796 -0.0212
vn -0.9993 0.0295 -0.0235
vn -0.9971 0.0344 0.0683
vn -0.7389 0.6708 0.0634
vn -0.9968 0.0391 0.0694
vn -0.7433 0.6659 0.0638
vn 0.9994 -0.0353 -0.0018
vn 1.0000 0.0075 -0.0062
vn 0.9999 0.0095 -0.0035
vn 0.9999 -0.0122 0.0007
vn 0.9988 -0.0490 0.0060
vn 0.8410 0.5398 0.0359
vn 0.8734 0.4861 0.0297
vn 0.9985 0.0413 0.0351
vn 0.7433 0.6659 0.0638
vn 0.9968 0.0391 0.0694
vn 0.7389 0.6708 0.0634
vn 0.9971 0.0344 0.0684
vn 0.7332 0.6796 -0.0212
vn 0.9993 0.0295 -0.0235
vn 0.9957 0.0382 -0.0844
vn 0.7411 0.6667 -0.0786
vn -0.5927 0.5491 -0.5892
vn -0.7279 0.6854 0.0167
vn -0.7337 0.6792 0.0201
vn -0.7375 0.6753 -0.0085
vn -0.7302 0.6828 -0.0223
vn 0.9980 -0.0621 0.0146
vn 0.9967 -0.0789 0.0183
vn 0.9961 -0.0881 -0.0073
vn 0.9973 -0.0707 -0.0201
vn -0.9973 -0.0707 -0.0201
vn -0.9961 -0.0881 -0.0073
vn -0.9967 -0.0789 0.0183
vn -0.9980 -0.0621 0.0146
vn 0.4408 0.2067 -0.8735
vn 0.4729 -0.2104 -0.8557
vn -0.0000 0.2544 -0.9671
vn -0.9214 0.3886 -0.0000
vn -0.1748 0.4793 0.8601
vn -0.4422 0.8969 -0.0000
vn 0.1748 0.4793 0.8601
vn -0.4062 0.5133 0.7560
vn -0.0000 0.2544 0.9671
vn -0.9531 -0.3027 -0.0000
vn -0.4408 0.2067 -0.8735
vn -0.4729 -0.2104 -0.8557
vn -0.3736 0.9276 -0.0000
vn 0.4422 0.8969 -0.0000
vn 0.3736 0.9276 -0.0000
vn 0.4062 0.5133 0.7560
vn -0.0000 1.0000 -0.0000
vn 0.4062 0.5133 -0.7560
vn -0.4062 0.5133 -0.7560
vn 0.9214 0.3886 -0.0000
vn 0.1748 0.4793 -0.8601
vn -0.0000 -0.5739 0.8189
vn -0.4729 -0.2104 0.8557
vn 0.9531 -0.3027 -0.0000
vn 0.4729 -0.2104 0.8557
vn 0.4408 0.2067 0.8735
vn -0.1748 0.4793 -0.8601
vn -0.4408 0.2067 0.8735
vn -0.0000 -0.5739 -0.8189
vn -0.0000 -1.0000 -0.0000
vn -0.5933 0.5503 0.5875
vn -0.6914 0.2051 0.6927
vn 0.6914 0.2051 0.6927
vn 0.6883 0.2046 -0.6960
vn -0.6882 0.2046 -0.6960
vn 0.6966 0.1749 0.6958
vn 0.6928 0.1730 -0.7000
vn -0.6966 0.1749 0.6958
vn -0.6929 0.1729 -0.7000
vt 0.579004 0.471575
vt 0.587003 0.474100
vt 0.582614 0.478888
vt 0.583162 0.406939
vt 0.585146 0.395413
vt 0.591728 0.404476
vt 0.535832 0.400063
vt 0.525631 0.398850
vt 0.532967 0.392389
vt 0.528806 0.464879
vt 0.527412 0.476168
vt 0.520277 0.467727
vt 0.538279 0.473692
vt 0.538172 0.463995
vt 0.304867 0.690959
vt 0.306249 0.685107
vt 0.308998 0.689582
vt 0.492514 0.496870
vt 0.494525 0.510498
vt 0.485894 0.504367
vt 0.499149 0.489380
vt 0.501476 0.503247
vt 0.505842 0.481923
vt 0.508401 0.496027
vt 0.512736 0.474590
vt 0.515235 0.488904
vt 0.521766 0.482094
vt 0.301926 0.718034
vt 0.307463 0.719955
vt 0.302944 0.722085
vt 0.505742 0.367893
vt 0.493358 0.369499
vt 0.498755 0.362022
vt 0.512721 0.373773
vt 0.500130 0.375657
vt 0.519669 0.379697
vt 0.506879 0.381793
vt 0.526509 0.385779
vt 0.513553 0.387856
vt 0.519972 0.393686
vt 0.281895 0.715071
vt 0.280111 0.720689
vt 0.277694 0.716264
vt 0.623760 0.379931
vt 0.624177 0.366054
vt 0.631655 0.373665
vt 0.615862 0.386195
vt 0.615986 0.372017
vt 0.607950 0.392446
vt 0.607808 0.377977
vt 0.599976 0.398627
vt 0.599688 0.383923
vt 0.591852 0.389810
vt 0.283482 0.688275
vt 0.278910 0.686148
vt 0.281850 0.684420
vt 0.613753 0.500091
vt 0.624328 0.499996
vt 0.621648 0.505143
vt 0.605861 0.495035
vt 0.616541 0.494741
vt 0.597980 0.489953
vt 0.608764 0.489489
vt 0.590155 0.484738
vt 0.601036 0.484248
vt 0.593542 0.479059
vt 0.593006 0.465397
vt 0.600830 0.470596
vt 0.579737 0.441102
vt 0.570651 0.429994
vt 0.579422 0.429602
vt 0.586603 0.441127
vt 0.586294 0.429231
vt 0.545764 0.453001
vt 0.536646 0.442304
vt 0.545295 0.441971
vt 0.554199 0.452683
vt 0.553844 0.441675
vt 0.562629 0.452411
vt 0.562380 0.441408
vt 0.608421 0.476073
vt 0.571037 0.452231
vt 0.570974 0.441199
vt 0.579491 0.452336
vt 0.586134 0.452797
vt 0.546227 0.463814
vt 0.537330 0.453446
vt 0.554571 0.463633
vt 0.615958 0.481606
vt 0.562945 0.463312
vt 0.571085 0.462906
vt 0.578791 0.462748
vt 0.584853 0.463398
vt 0.623484 0.487150
vt 0.631007 0.492697
vt 0.281055 0.691649
vt 0.276775 0.690729
vt 0.280529 0.696133
vt 0.275659 0.695745
vt 0.280239 0.700944
vt 0.275294 0.700978
vt 0.275551 0.706207
vt 0.280467 0.705850
vt 0.276264 0.711353
vt 0.281080 0.710640
vt 0.519287 0.406903
vt 0.512107 0.401037
vt 0.505414 0.394777
vt 0.498874 0.388409
vt 0.492379 0.382013
vt 0.485894 0.375610
vt 0.305703 0.714196
vt 0.309925 0.715304
vt 0.306294 0.709772
vt 0.311153 0.710235
vt 0.306608 0.704989
vt 0.311552 0.704971
vt 0.311294 0.699713
vt 0.306378 0.700087
vt 0.310543 0.694538
vt 0.305743 0.695327
vt 0.536699 0.409737
vt 0.529886 0.402820
vt 0.536458 0.420018
vt 0.527262 0.409203
vt 0.536355 0.431019
vt 0.525803 0.419405
vt 0.525271 0.430968
vt 0.525532 0.442831
vt 0.526659 0.454466
vt 0.516789 0.418786
vt 0.516013 0.430974
vt 0.516297 0.443185
vt 0.517430 0.455439
vt 0.595272 0.453299
vt 0.595897 0.441048
vt 0.595531 0.428847
vt 0.594384 0.416654
vt 0.585175 0.417549
vt 0.562048 0.430327
vt 0.553514 0.430627
vt 0.544981 0.430875
vt 0.578568 0.418294
vt 0.570061 0.418890
vt 0.561602 0.419299
vt 0.553172 0.419649
vt 0.544798 0.419937
vt 0.577359 0.407766
vt 0.569411 0.408117
vt 0.561105 0.408362
vt 0.552709 0.408736
vt 0.544499 0.409263
vt 0.576761 0.398705
vt 0.580982 0.399959
vt 0.569358 0.397511
vt 0.560760 0.397168
vt 0.551926 0.397523
vt 0.543375 0.398519
vt 0.536030 0.482280
vt 0.529563 0.490128
vt 0.522558 0.497340
vt 0.515403 0.504359
vt 0.508205 0.511325
vt 0.500998 0.518278
vt 0.300854 0.687381
vt 0.301607 0.683276
vt 0.297536 0.687395
vt 0.297709 0.682700
vt 0.293855 0.687503
vt 0.293757 0.682621
vt 0.289762 0.682737
vt 0.290109 0.687637
vt 0.285765 0.683282
vt 0.286516 0.687920
vt 0.580048 0.390566
vt 0.587932 0.383845
vt 0.596165 0.377897
vt 0.604464 0.372112
vt 0.612776 0.366359
vt 0.621090 0.360611
vt 0.284531 0.718275
vt 0.283153 0.722225
vt 0.287580 0.718432
vt 0.287132 0.723107
vt 0.291183 0.718479
vt 0.291155 0.723392
vt 0.294929 0.718369
vt 0.295148 0.723249
vt 0.299088 0.722913
vt 0.298611 0.718237
vt 0.582614 0.469944
vt 0.572046 0.473300
vt 0.563692 0.474375
vt 0.554908 0.474852
vt 0.546208 0.474653
vt 0.570224 0.388337
vt 0.560565 0.387915
vt 0.551132 0.388511
vt 0.541905 0.389809
vt 0.545674 0.483780
vt 0.555128 0.483935
vt 0.564454 0.483410
vt 0.573691 0.481937
vt 0.727808 0.060288
vt 0.729675 0.060877
vt 0.721870 0.067412
vt 0.738770 0.094885
vt 0.748315 0.111999
vt 0.735326 0.108643
vt 0.726108 0.057380
vt 0.724811 0.057172
vt 0.720366 0.049304
vt 0.741775 0.084789
vt 0.727320 0.089591
vt 0.735059 0.081038
vt 0.153621 0.972249
vt 0.157483 0.963585
vt 0.161200 0.972249
vt 0.732772 0.119491
vt 0.748626 0.122399
vt 0.716343 0.059386
vt 0.708754 0.075726
vt 0.692412 0.064715
vt 0.725166 0.060123
vt 0.725361 0.058787
vt 0.727851 0.058710
vt 0.726280 0.059803
vt 0.726314 0.058702
vt 0.750457 0.054725
vt 0.750457 0.083386
vt 0.729803 0.058826
vt 0.730215 0.056587
vt 0.727967 0.057116
vt 0.702028 0.047429
vt 0.721798 0.105787
vt 0.716944 0.115195
vt 0.157483 0.980913
vt 0.750454 0.095521
vt 0.736993 0.064173
vt 0.741068 0.061702
vt 0.531413 0.471863
vt 0.303533 0.688300
vt 0.304543 0.716941
vt 0.282770 0.717422
vt 0.281777 0.689241
vt 0.304540 0.716939
vt 0.282772 0.717421
vt 0.303530 0.688303
vt 0.281779 0.689242
vt 0.709236 0.084432
vt 0.697774 0.038465
vt 0.711090 0.022532
vt 0.726099 0.019087
vt 0.151763 0.963585
vt 0.151763 0.980913
s 1
usemtl マテリアル
f 94/1/1 15/2/2 160/3/3
f 38/4/4 21/5/5 110/6/6
f 70/7/7 27/8/8 140/9/9
f 44/10/10 14/11/11 84/12/12
f 101/13/13 44/10/10 196/14/14
f 62/15/15 5/16/16 50/17/17
f 66/18/18 9/19/19 62/20/20
f 68/21/21 10/22/22 66/18/18
f 74/23/23 11/24/24 68/21/21
f 78/25/25 12/26/26 74/23/23
f 84/12/12 13/27/27 78/25/25
f 126/28/28 8/29/29 114/30/30
f 128/31/31 32/32/32 126/33/33
f 130/34/34 31/35/35 128/31/31
f 132/36/36 30/37/37 130/34/34
f 134/38/38 29/39/39 132/36/36
f 140/9/9 28/40/40 134/38/38
f 90/41/41 7/42/42 56/43/43
f 92/44/44 26/45/45 90/46/46
f 98/47/47 25/48/48 92/44/44
f 102/49/49 24/50/50 98/47/47
f 104/51/51 23/52/52 102/49/49
f 110/6/6 22/53/53 104/51/51
f 146/54/54 6/55/55 120/56/56
f 148/57/57 20/58/58 146/59/59
f 150/60/60 19/61/61 148/57/57
f 152/62/62 18/63/63 150/60/60
f 154/64/64 17/65/65 152/62/62
f 160/3/3 16/66/66 154/64/64
f 16/66/66 105/67/67 103/68/68
f 179/69/69 174/70/70 173/71/71
f 35/72/72 173/71/71 36/73/73
f 189/74/74 184/75/75 183/76/76
f 188/77/77 183/76/76 182/78/78
f 187/79/79 182/78/78 181/80/80
f 17/65/65 103/68/68 99/81/81
f 186/82/82 181/80/80 180/83/83
f 185/84/84 180/83/83 179/69/69
f 34/85/85 179/69/69 35/72/72
f 195/86/86 190/87/87 189/74/74
f 194/88/88 189/74/74 188/77/77
f 18/63/63 99/81/81 93/89/89
f 193/90/90 188/77/77 187/79/79
f 192/91/91 187/79/79 186/82/82
f 191/92/92 186/82/82 185/84/84
f 33/93/93 185/84/84 34/85/85
f 19/61/61 93/89/89 91/94/94
f 20/58/58 91/94/94 85/95/95
f 6/55/55 85/96/96 51/97/97
f 51/97/97 86/98/98 52/99/99
f 52/99/99 87/100/100 53/101/101
f 87/100/100 54/102/102 53/101/101
f 88/103/103 55/104/104 54/102/102
f 89/105/105 56/43/43 55/104/104
f 28/40/40 79/106/106 75/107/107
f 29/39/39 75/107/107 69/108/108
f 30/37/37 69/108/108 67/109/109
f 31/35/35 67/109/109 63/110/110
f 32/32/32 63/110/110 57/111/111
f 8/29/29 57/112/112 45/113/113
f 45/113/113 58/114/114 46/115/115
f 46/115/115 59/116/116 47/117/117
f 59/116/116 48/118/118 47/117/117
f 60/119/119 49/120/120 48/118/118
f 61/121/121 50/17/17 49/120/120
f 166/122/122 3/123/123 70/7/7
f 172/124/124 39/125/125 166/122/122
f 178/126/126 40/127/127 172/124/124
f 184/75/75 41/128/128 178/126/126
f 190/87/87 42/129/129 184/75/75
f 196/14/14 43/130/130 190/87/87
f 27/8/8 39/125/125 79/106/106
f 79/106/106 40/127/127 80/131/131
f 80/131/131 41/128/128 81/132/132
f 81/132/132 42/129/129 82/133/133
f 42/129/129 83/134/134 82/133/133
f 43/130/130 84/12/12 83/134/134
f 15/2/2 33/93/93 105/67/67
f 105/67/67 34/85/85 106/135/135
f 106/135/135 35/72/72 107/136/136
f 107/136/136 36/73/73 108/137/137
f 36/73/73 109/138/138 108/137/137
f 37/139/139 110/6/6 109/138/138
f 180/83/83 175/140/140 174/70/70
f 181/80/80 176/141/141 175/140/140
f 182/78/78 177/142/142 176/141/141
f 183/76/76 178/126/126 177/142/142
f 36/73/73 167/143/143 37/139/139
f 173/71/71 168/144/144 167/143/143
f 174/70/70 169/145/145 168/144/144
f 175/140/140 170/146/146 169/145/145
f 176/141/141 171/147/147 170/146/146
f 177/142/142 172/124/124 171/147/147
f 37/139/139 161/148/148 38/4/4
f 167/143/143 162/149/149 161/148/148
f 168/144/144 163/150/150 162/149/149
f 169/145/145 164/151/151 163/150/150
f 170/146/146 165/152/152 164/151/151
f 171/147/147 166/122/122 165/152/152
f 38/4/4 77/153/153 4/154/154
f 161/148/148 76/155/155 77/153/153
f 162/149/149 73/156/156 76/155/155
f 163/150/150 72/157/157 73/156/156
f 164/151/151 71/158/158 72/157/157
f 165/152/152 70/7/7 71/158/158
f 13/27/27 155/159/159 153/160/160
f 12/26/26 153/160/160 151/161/161
f 11/24/24 151/161/161 149/162/162
f 10/22/22 149/162/162 147/163/163
f 9/19/19 147/163/163 141/164/164
f 5/16/16 141/165/165 115/166/166
f 115/166/166 142/167/167 116/168/168
f 116/168/168 143/169/169 117/170/170
f 143/169/169 118/171/171 117/170/170
f 144/172/172 119/173/173 118/171/171
f 145/174/174 120/56/56 119/173/173
f 22/53/53 135/175/175 133/176/176
f 23/52/52 133/176/176 131/177/177
f 24/50/50 131/177/177 129/178/178
f 25/48/48 129/178/178 127/179/179
f 26/45/45 127/179/179 121/180/180
f 7/42/42 121/181/181 65/182/182
f 65/182/182 122/183/183 64/184/184
f 64/184/184 123/185/185 111/186/186
f 111/186/186 124/187/187 112/188/188
f 124/187/187 113/189/189 112/188/188
f 125/190/190 114/30/30 113/189/189
f 2/191/191 191/92/92 33/93/93
f 94/1/1 192/91/91 191/92/92
f 95/192/192 193/90/90 192/91/91
f 96/193/193 194/88/88 193/90/90
f 97/194/194 195/86/86 194/88/88
f 100/195/195 196/14/14 195/86/86
f 21/5/5 77/153/153 135/175/175
f 135/175/175 76/155/155 136/196/196
f 136/196/196 73/156/156 137/197/197
f 137/197/197 72/157/157 138/198/198
f 72/157/157 139/199/199 138/198/198
f 71/158/158 140/9/9 139/199/199
f 14/11/11 101/13/13 155/159/159
f 155/159/159 100/195/195 156/200/200
f 156/200/200 97/194/194 157/201/201
f 97/194/194 158/202/202 157/201/201
f 96/193/193 159/203/203 158/202/202
f 95/192/192 160/3/3 159/203/203
f 85/96/96 146/54/54 145/174/174
f 205/204/204 199/205/205 208/206/206
f 221/207/207 214/208/208 225/209/209
f 211/210/210 212/211/211 207/212/212
f 219/213/213 204/214/214 198/215/215
f 223/216/216 211/217/210 222/218/217
f 224/219/218 214/208/208 213/220/219
f 226/221/220 216/222/221 224/223/218
f 209/224/222 226/221/220 223/225/216
f 220/226/223 210/227/224 222/228/217
f 219/213/213 202/229/225 197/230/226
f 202/229/225 218/231/227 200/232/228
f 218/231/227 206/233/229 200/232/228
f 205/204/204 218/231/227 199/205/205
f 220/226/223 211/210/210 206/233/229
f 212/211/211 226/221/220 207/212/212
f 213/234/219 226/221/220 224/223/218
f 215/235/230 224/219/218 216/236/221
f 210/237/224 223/216/216 222/218/217
f 203/238/231 219/213/213 197/230/226
f 221/207/207 215/235/230 204/214/214
f 218/231/227 201/239/232 199/205/205
f 219/213/213 201/239/232 217/240/233
f 94/1/1 2/191/191 15/2/2
f 38/4/4 4/154/154 21/5/5
f 70/7/7 3/123/123 27/8/8
f 44/10/10 1/241/234 14/11/11
f 101/13/13 1/241/234 44/10/10
f 62/15/15 9/242/235 5/16/16
f 66/18/18 10/22/22 9/19/19
f 68/21/21 11/24/24 10/22/22
f 74/23/23 12/26/26 11/24/24
f 78/25/25 13/27/27 12/26/26
f 84/12/12 14/11/11 13/27/27
f 126/28/28 32/243/236 8/29/29
f 128/31/31 31/35/35 32/32/32
f 130/34/34 30/37/37 31/35/35
f 132/36/36 29/39/39 30/37/37
f 134/38/38 28/40/40 29/39/39
f 140/9/9 27/8/8 28/40/40
f 90/41/41 26/244/237 7/42/42
f 92/44/44 25/48/48 26/45/45
f 98/47/47 24/50/50 25/48/48
f 102/49/49 23/52/52 24/50/50
f 104/51/51 22/53/53 23/52/52
f 110/6/6 21/5/5 22/53/53
f 146/54/54 20/245/238 6/55/55
f 148/57/57 19/61/61 20/58/58
f 150/60/60 18/63/63 19/61/61
f 152/62/62 17/65/65 18/63/63
f 154/64/64 16/66/66 17/65/65
f 160/3/3 15/2/2 16/66/66
f 16/66/66 15/2/2 105/67/67
f 179/69/69 180/83/83 174/70/70
f 35/72/72 179/69/69 173/71/71
f 189/74/74 190/87/87 184/75/75
f 188/77/77 189/74/74 183/76/76
f 187/79/79 188/77/77 182/78/78
f 17/65/65 16/66/66 103/68/68
f 186/82/82 187/79/79 181/80/80
f 185/84/84 186/82/82 180/83/83
f 34/85/85 185/84/84 179/69/69
f 195/86/86 196/14/14 190/87/87
f 194/88/88 195/86/86 189/74/74
f 18/63/63 17/65/65 99/81/81
f 193/90/90 194/88/88 188/77/77
f 192/91/91 193/90/90 187/79/79
f 191/92/92 192/91/91 186/82/82
f 33/93/93 191/92/92 185/84/84
f 19/61/61 18/63/63 93/89/89
f 20/58/58 19/61/61 91/94/94
f 6/55/55 20/245/238 85/96/96
f 51/97/97 85/96/96 86/98/98
f 52/99/99 86/98/98 87/100/100
f 87/100/100 88/103/103 54/102/102
f 88/103/103 89/105/105 55/104/104
f 89/105/105 90/41/41 56/43/43
f 28/40/40 27/8/8 79/106/106
f 29/39/39 28/40/40 75/107/107
f 30/37/37 29/39/39 69/108/108
f 31/35/35 30/37/37 67/109/109
f 32/32/32 31/35/35 63/110/110
f 8/29/29 32/243/236 57/112/112
f 45/113/113 57/112/112 58/114/114
f 46/115/115 58/114/114 59/116/116
f 59/116/116 60/119/119 48/118/118
f 60/119/119 61/121/121 49/120/120
f 61/121/121 62/15/15 50/17/17
f 166/122/122 39/125/125 3/123/123
f 172/124/124 40/127/127 39/125/125
f 178/126/126 41/128/128 40/127/127
f 184/75/75 42/129/129 41/128/128
f 190/87/87 43/130/130 42/129/129
f 196/14/14 44/10/10 43/130/130
f 27/8/8 3/123/123 39/125/125
f 79/106/106 39/125/125 40/127/127
f 80/131/131 40/127/127 41/128/128
f 81/132/132 41/128/128 42/129/129
f 42/129/129 43/130/130 83/134/134
f 43/130/130 44/10/10 84/12/12
f 15/2/2 2/191/191 33/93/93
f 105/67/67 33/93/93 34/85/85
f 106/135/135 34/85/85 35/72/72
f 107/136/136 35/72/72 36/73/73
f 36/73/73 37/139/139 109/138/138
f 37/139/139 38/4/4 110/6/6
f 180/83/83 181/80/80 175/140/140
f 181/80/80 182/78/78 176/141/141
f 182/78/78 183/76/76 177/142/142
f 183/76/76 184/75/75 178/126/126
f 36/73/73 173/71/71 167/143/143
f 173/71/71 174/70/70 168/144/144
f 174/70/70 175/140/140 169/145/145
f 175/140/140 176/141/141 170/146/146
f 176/141/141 177/142/142 171/147/147
f 177/142/142 178/126/126 172/124/124
f 37/139/139 167/143/143 161/148/148
f 167/143/143 168/144/144 162/149/149
f 168/144/144 169/145/145 163/150/150
f 169/145/145 170/146/146 164/151/151
f 170/146/146 171/147/147 165/152/152
f 171/147/147 172/124/124 166/122/122
f 38/4/4 161/148/148 77/153/153
f 161/148/148 162/149/149 76/155/155
f 162/149/149 163/150/150 73/156/156
f 163/150/150 164/151/151 72/157/157
f 164/151/151 165/152/152 71/158/158
f 165/152/152 166/122/122 70/7/7
f 13/27/27 14/11/11 155/159/159
f 12/26/26 13/27/27 153/160/160
f 11/24/24 12/26/26 151/161/161
f 10/22/22 11/24/24 149/162/162
f 9/19/19 10/22/22 147/163/163
f 5/16/16 9/242/235 141/165/165
f 115/166/166 141/165/165 142/167/167
f 116/168/168 142/167/167 143/169/169
f 143/169/169 144/172/172 118/171/171
f 144/172/172 145/174/174 119/173/173
f 145/174/174 146/54/54 120/56/56
f 22/53/53 21/5/5 135/175/175
f 23/52/52 22/53/53 133/176/176
f 24/50/50 23/52/52 131/177/177
f 25/48/48 24/50/50 129/178/178
f 26/45/45 25/48/48 127/179/179
f 7/42/42 26/244/237 121/181/181
f 65/182/182 121/181/181 122/183/183
f 64/184/184 122/183/183 123/185/185
f 111/186/186 123/185/185 124/187/187
f 124/187/187 125/190/190 113/189/189
f 125/190/190 126/28/28 114/30/30
f 2/191/191 94/1/1 191/92/92
f 94/1/1 95/192/192 192/91/91
f 95/192/192 96/193/193 193/90/90
f 96/193/193 97/194/194 194/88/88
f 97/194/194 100/195/195 195/86/86
f 100/195/195 101/13/13 196/14/14
f 21/5/5 4/154/154 77/153/153
f 135/175/175 77/153/153 76/155/155
f 136/196/196 76/155/155 73/156/156
f 137/197/197 73/156/156 72/157/157
f 72/157/157 71/158/158 139/199/199
f 71/158/158 70/7/7 140/9/9
f 14/11/11 1/241/234 101/13/13
f 155/159/159 101/13/13 100/195/195
f 156/200/200 100/195/195 97/194/194
f 97/194/194 96/193/193 158/202/202
f 96/193/193 95/192/192 159/203/203
f 95/192/192 94/1/1 160/3/3
f 57/112/112 32/246/239 126/28/28
f 57/112/112 126/28/28 125/190/190
f 58/114/114 57/112/112 125/190/190
f 58/114/114 125/190/190 124/187/187
f 59/116/116 58/114/114 124/187/187
f 59/116/116 124/187/187 88/103/103
f 124/187/187 123/185/185 88/103/103
f 60/119/119 59/116/116 87/100/100
f 87/100/100 59/116/116 88/103/103
f 123/185/185 122/183/183 89/105/105
f 61/121/121 60/119/119 143/169/169
f 121/181/181 26/247/240 90/41/41
f 60/119/119 87/100/100 143/169/169
f 122/183/183 121/181/181 90/41/41
f 141/165/165 9/248/241 62/15/15
f 62/15/15 61/121/121 142/167/167
f 88/103/103 123/185/185 89/105/105
f 62/15/15 142/167/167 141/165/165
f 90/41/41 89/105/105 122/183/183
f 142/167/167 61/121/121 143/169/169
f 87/100/100 86/98/98 144/172/172
f 144/172/172 143/169/169 87/100/100
f 86/98/98 85/96/96 145/174/174
f 85/96/96 20/249/242 146/54/54
f 145/174/174 144/172/172 86/98/98
f 201/239/232 198/215/215 208/206/206
f 198/215/215 204/214/214 208/206/206
f 204/214/214 215/250/230 208/206/206
f 215/250/230 216/222/221 208/206/206
f 208/206/206 209/224/222 210/227/224
f 199/205/205 201/239/232 208/206/206
f 210/227/224 205/204/204 208/206/206
f 221/207/207 203/238/231 214/208/208
f 207/212/212 213/234/219 214/251/208
f 214/251/208 203/252/231 207/212/212
f 203/252/231 197/253/226 207/212/212
f 197/253/226 202/229/225 207/212/212
f 202/229/225 200/232/228 207/212/212
f 200/232/228 206/233/229 207/212/212
f 206/233/229 211/210/210 207/212/212
f 219/213/213 221/207/207 204/214/214
f 223/216/216 212/254/211 211/217/210
f 224/219/218 225/209/209 214/208/208
f 226/221/220 208/206/206 216/222/221
f 209/224/222 208/206/206 226/221/220
f 220/226/223 205/204/204 210/227/224
f 219/213/213 217/240/233 202/229/225
f 202/229/225 217/240/233 218/231/227
f 218/231/227 220/226/223 206/233/229
f 205/204/204 220/226/223 218/231/227
f 220/226/223 222/228/217 211/210/210
f 212/211/211 223/225/216 226/221/220
f 213/234/219 207/212/212 226/221/220
f 215/235/230 225/209/209 224/219/218
f 210/237/224 209/255/222 223/216/216
f 203/238/231 221/207/207 219/213/213
f 221/207/207 225/209/209 215/235/230
f 218/231/227 217/240/233 201/239/232
f 219/213/213 198/215/215 201/239/232
