# Blender 4.4.1
# www.blender.org
mtllib enemy.mtl
o 円
v 0.495654 -0.243927 -0.286363
v 0.589977 -0.263388 -0.298936
v 0.491236 -0.337596 -0.128922
v 0.586161 -0.333362 -0.108794
v 0.498849 -0.308827 0.059415
v 0.568912 -0.370211 0.086929
v 0.482928 -0.278626 0.244367
v 0.575460 -0.251536 0.256106
v 0.478074 -0.120156 0.372225
v 0.572826 -0.129912 0.391216
v 0.475847 0.047490 0.450141
v 0.570744 0.065320 0.439634
v 0.475393 0.245391 0.420098
v 0.570814 0.250337 0.437537
v 0.483672 0.394273 0.323031
v 0.566139 0.438206 0.349544
v 0.480289 0.526878 0.179566
v 0.576495 0.537953 0.187029
v 0.484398 0.576262 -0.004133
v 0.581521 0.576348 -0.003265
v 0.493390 0.559310 -0.187472
v 0.582245 0.521328 -0.197267
v 0.494714 0.422984 -0.342932
v 0.589539 0.438378 -0.357248
v 0.497500 0.262764 -0.440885
v 0.592785 0.269930 -0.458295
v 0.504480 0.083931 -0.450453
v 0.588204 0.067533 -0.496876
v 0.497291 -0.104993 -0.413443
v 0.593747 -0.111414 -0.422860
v -0.332297 -0.392816 -0.305454
v -0.350689 -0.298899 -0.322043
v -0.439203 -0.393564 -0.156620
v -0.436810 -0.298151 -0.138611
v -0.426806 -0.381128 0.033244
v -0.490400 -0.310587 0.053576
v -0.412666 -0.392298 0.220455
v -0.386777 -0.299417 0.232140
v -0.265819 -0.393442 0.361588
v -0.277268 -0.298273 0.377262
v -0.105523 -0.393186 0.453709
v -0.086942 -0.298528 0.442379
v 0.094233 -0.393779 0.440870
v 0.097566 -0.297935 0.456250
v 0.250930 -0.387480 0.356831
v 0.292333 -0.304235 0.384937
v 0.395426 -0.394055 0.225471
v 0.405726 -0.297659 0.231424
v 0.460480 -0.394415 0.046673
v 0.460399 -0.297300 0.045085
v 0.459407 -0.390088 -0.137614
v 0.422330 -0.301626 -0.152896
v 0.337008 -0.393099 -0.304238
v 0.353492 -0.298616 -0.319569
v 0.185839 -0.393277 -0.415686
v 0.194391 -0.298438 -0.434821
v 0.008493 -0.387097 -0.440820
v -0.003915 -0.304618 -0.490590
v -0.182915 -0.393941 -0.420077
v -0.188589 -0.297773 -0.432451
v -0.262301 0.620881 -0.368139
v -0.276770 0.526965 -0.388242
v -0.102623 0.621630 -0.458045
v -0.084986 0.526217 -0.453688
v 0.084729 0.609194 -0.424863
v 0.111926 0.538652 -0.485838
v 0.269255 0.620364 -0.390240
v 0.278025 0.527482 -0.363224
v 0.393399 0.621508 -0.228776
v 0.410235 0.526339 -0.238433
v 0.467350 0.621253 -0.059329
v 0.454048 0.526595 -0.042105
v 0.432642 0.621846 0.137808
v 0.447562 0.526002 0.142810
v 0.331896 0.556426 0.417942
v 0.358577 0.332502 0.516688
v 0.185455 0.437682 0.547130
v 0.190240 0.341286 0.558023
v 0.000591 0.344045 0.592146
v -0.000978 0.246930 0.591891
v -0.182461 0.433715 0.570833
v -0.193577 0.345253 0.532301
v -0.334629 0.562045 0.430867
v -0.348384 0.326882 0.500073
v -0.428794 0.621343 0.134749
v -0.448752 0.526504 0.141147
v -0.434290 0.615163 -0.044285
v -0.482395 0.532684 -0.062085
v -0.392643 0.622008 -0.232254
v -0.404318 0.525840 -0.239254
v -0.486365 -0.181717 -0.333027
v -0.579730 -0.198158 -0.354162
v -0.483490 -0.030387 -0.436333
v -0.578999 -0.012738 -0.435916
v -0.496936 0.159089 -0.419770
v -0.565937 0.180704 -0.484620
v -0.486819 0.345947 -0.400934
v -0.580363 0.356725 -0.377120
v -0.489881 0.483561 -0.250811
v -0.584790 0.499204 -0.264276
v -0.494496 0.571852 -0.088440
v -0.589547 0.559790 -0.072517
v -0.498862 0.554282 0.110909
v -0.594817 0.569279 0.112193
v -0.508777 0.466531 0.265368
v -0.593136 0.493388 0.305317
v -0.505337 0.331802 0.406840
v -0.601983 0.337209 0.414850
v -0.505945 0.151513 0.467638
v -0.603021 0.149625 0.465078
v -0.509560 -0.032708 0.462104
v -0.597007 -0.047382 0.422463
v -0.502864 -0.196374 0.335916
v -0.597673 -0.212385 0.349651
v -0.498483 -0.304204 0.182208
v -0.593435 -0.323832 0.187918
v -0.500122 -0.325144 0.004218
v -0.582079 -0.374862 -0.011433
v -0.488559 -0.299846 -0.186414
v -0.584508 -0.312381 -0.194795
v 0.329569 -0.215370 -0.003653
v 0.323256 -0.215370 0.060438
v -0.381712 0.617404 0.282808
v 0.382269 0.614846 0.277874
v -0.001655 0.599714 -0.330056
v -0.001655 0.438708 -0.491060
v -0.001655 -0.209713 -0.491060
v 0.061596 0.599714 -0.323826
v 0.078848 0.527140 -0.410557
v 0.093006 0.438708 -0.481737
v 0.093006 -0.209713 -0.481737
v 0.078848 -0.298144 -0.410557
v 0.061596 -0.370718 -0.323826
v 0.122415 0.599714 -0.305376
v 0.156256 0.527140 -0.387076
v 0.184029 0.438708 -0.454125
v 0.184029 -0.209713 -0.454125
v 0.156256 -0.298144 -0.387076
v 0.122415 -0.370718 -0.305376
v 0.178467 0.599714 -0.275416
v 0.227597 0.527140 -0.348944
v 0.267917 0.438708 -0.409286
v 0.297877 0.337818 -0.454125
v 0.316327 0.228346 -0.481737
v 0.322556 0.114498 -0.491060
v 0.316327 0.000650 -0.481737
v 0.297877 -0.108822 -0.454125
v 0.267917 -0.209713 -0.409286
v 0.227597 -0.298144 -0.348944
v 0.178467 -0.370718 -0.275416
v 0.227597 0.599714 -0.235096
v 0.290127 0.527140 -0.297626
v 0.341445 0.438708 -0.348944
v 0.379577 0.337818 -0.387076
v 0.403058 0.228346 -0.410557
v 0.410987 0.114498 -0.418486
v 0.403058 0.000650 -0.410557
v 0.379577 -0.108822 -0.387076
v 0.341445 -0.209713 -0.348944
v 0.290127 -0.298144 -0.297626
v 0.227597 -0.370718 -0.235096
v 0.267917 0.599714 -0.185966
v 0.341445 0.527140 -0.235096
v 0.401787 0.438708 -0.275416
v 0.446626 0.337818 -0.305376
v 0.474238 0.228346 -0.323826
v 0.483561 0.114498 -0.330056
v 0.474238 0.000650 -0.323826
v 0.446626 -0.108822 -0.305376
v 0.401787 -0.209713 -0.275416
v 0.341445 -0.298144 -0.235096
v 0.267917 -0.370718 -0.185966
v 0.297877 0.599714 -0.129915
v 0.379577 0.527140 -0.163756
v 0.446626 0.438708 -0.191528
v 0.446626 -0.209713 -0.191528
v 0.379577 -0.298144 -0.163756
v 0.297877 -0.370718 -0.129914
v 0.316327 0.599714 -0.069095
v 0.403058 0.527140 -0.086347
v 0.474238 0.438708 -0.100506
v 0.474238 -0.209713 -0.100506
v 0.403058 -0.298144 -0.086347
v 0.316327 -0.370718 -0.069095
v 0.322556 0.599714 -0.005844
v 0.410987 0.527140 -0.005844
v 0.483561 0.438708 -0.005844
v 0.483561 -0.209713 -0.005844
v 0.410987 -0.298144 -0.005844
v 0.322556 -0.370718 -0.005844
v 0.316327 0.599714 0.057406
v 0.403058 0.527140 0.074658
v 0.474237 0.438708 0.088816
v 0.474237 -0.209713 0.088816
v 0.403058 -0.298144 0.074658
v 0.316327 -0.370718 0.057406
v 0.297877 0.599714 0.118226
v 0.379577 0.527140 0.152067
v 0.446626 0.438708 0.179840
v 0.446626 -0.209713 0.179840
v 0.379577 -0.298144 0.152067
v 0.297877 -0.370718 0.118226
v 0.267917 0.599714 0.174277
v 0.341445 0.527140 0.223408
v 0.401787 0.438708 0.263727
v 0.446626 0.337818 0.293688
v 0.474237 0.228346 0.312137
v 0.483561 0.114498 0.318366
v 0.474237 0.000650 0.312137
v 0.446626 -0.108822 0.293688
v 0.401787 -0.209713 0.263727
v 0.341445 -0.298144 0.223408
v 0.267917 -0.370718 0.174277
v 0.227597 0.599714 0.223408
v 0.290127 0.527140 0.285938
v 0.341445 0.438708 0.337255
v 0.379577 0.337818 0.375387
v 0.403058 0.228346 0.398869
v 0.410987 0.114498 0.406798
v 0.403058 0.000650 0.398869
v 0.379577 -0.108822 0.375387
v 0.341445 -0.209713 0.337255
v 0.290127 -0.298144 0.285938
v 0.227597 -0.370718 0.223408
v 0.178467 0.599714 0.263727
v 0.227597 0.527140 0.337255
v 0.267917 0.438708 0.397597
v 0.297877 0.337818 0.442437
v 0.316327 0.228346 0.470048
v 0.322556 0.114498 0.479371
v 0.316327 0.000650 0.470048
v 0.297877 -0.108822 0.442437
v 0.267917 -0.209713 0.397597
v 0.227597 -0.298144 0.337255
v 0.178467 -0.370718 0.263727
v 0.122415 0.599714 0.293688
v 0.156256 0.527140 0.375387
v 0.184029 0.438708 0.442437
v 0.184029 -0.209713 0.442437
v 0.156256 -0.298144 0.375387
v 0.122415 -0.370718 0.293688
v 0.061595 0.599714 0.312137
v 0.078848 0.527140 0.398869
v 0.093006 0.438708 0.470048
v 0.093006 -0.209713 0.470048
v 0.078848 -0.298144 0.398869
v 0.061595 -0.370718 0.312137
v -0.001655 0.599714 0.318366
v -0.001655 0.527140 0.406798
v -0.001655 0.438708 0.479371
v -0.001655 -0.209713 0.479371
v -0.001655 -0.298144 0.406798
v -0.001655 -0.370718 0.318366
v -0.064905 0.599714 0.312137
v -0.082158 0.527140 0.398869
v -0.096315 0.438708 0.470048
v -0.096315 -0.209713 0.470048
v -0.082158 -0.298144 0.398869
v -0.064905 -0.370718 0.312137
v -0.125725 0.599714 0.293688
v -0.159566 0.527140 0.375387
v -0.187339 0.438708 0.442437
v -0.187339 -0.209713 0.442437
v -0.159566 -0.298144 0.375387
v -0.125725 -0.370718 0.293688
v -0.181777 0.599714 0.263726
v -0.230907 0.527140 0.337255
v -0.271226 0.438708 0.397597
v -0.301187 0.337818 0.442437
v -0.319636 0.228346 0.470048
v -0.325865 0.114498 0.479371
v -0.319636 0.000650 0.470048
v -0.301187 -0.108822 0.442437
v -0.271226 -0.209713 0.397597
v -0.230907 -0.298144 0.337255
v -0.181777 -0.370718 0.263727
v -0.230907 0.599714 0.223407
v -0.293437 0.527140 0.285938
v -0.344754 0.438708 0.337254
v -0.382887 0.337818 0.375387
v -0.406368 0.228346 0.398869
v -0.414297 0.114498 0.406797
v -0.406368 0.000650 0.398869
v -0.382887 -0.108822 0.375387
v -0.344754 -0.209713 0.337254
v -0.293437 -0.298144 0.285938
v -0.230907 -0.370718 0.223407
v -0.271226 0.599714 0.174277
v -0.344754 0.527140 0.223408
v -0.405097 0.438708 0.263726
v -0.449936 0.337818 0.293688
v -0.477547 0.228346 0.312137
v -0.486870 0.114498 0.318366
v -0.477547 0.000650 0.312137
v -0.449936 -0.108822 0.293688
v -0.405097 -0.209713 0.263727
v -0.344754 -0.298144 0.223408
v -0.271226 -0.370718 0.174277
v -0.301187 0.599714 0.118225
v -0.382887 0.527140 0.152067
v -0.449936 0.438708 0.179839
v -0.449936 -0.209713 0.179839
v -0.382887 -0.298144 0.152067
v -0.301187 -0.370718 0.118225
v -0.319636 0.599714 0.057406
v -0.406368 0.527140 0.074658
v -0.477547 0.438708 0.088816
v -0.477547 -0.209713 0.088816
v -0.406368 -0.298144 0.074658
v -0.319636 -0.370718 0.057406
v -0.325865 0.599714 -0.005844
v -0.414297 0.527140 -0.005844
v -0.486870 0.438708 -0.005844
v -0.486870 -0.209713 -0.005844
v -0.414297 -0.298144 -0.005844
v -0.325865 -0.370718 -0.005844
v -0.319636 0.599714 -0.069095
v -0.406368 0.527140 -0.086347
v -0.477547 0.438708 -0.100506
v -0.477547 -0.209713 -0.100506
v -0.406368 -0.298144 -0.086347
v -0.319636 -0.370718 -0.069095
v -0.301186 0.599714 -0.129915
v -0.382887 0.527140 -0.163756
v -0.449936 0.438708 -0.191528
v -0.449936 -0.209713 -0.191528
v -0.382887 -0.298144 -0.163756
v -0.301186 -0.370718 -0.129914
v -0.271226 0.599714 -0.185966
v -0.344754 0.527140 -0.235096
v -0.405096 0.438708 -0.275416
v -0.449936 0.337818 -0.305376
v -0.477547 0.228346 -0.323826
v -0.486870 0.114498 -0.330056
v -0.477547 0.000650 -0.323826
v -0.449936 -0.108822 -0.305376
v -0.405096 -0.209713 -0.275416
v -0.344754 -0.298144 -0.235096
v -0.271226 -0.370718 -0.185966
v -0.230906 0.599714 -0.235096
v -0.293437 0.527140 -0.297626
v -0.344754 0.438708 -0.348944
v -0.382887 0.337818 -0.387076
v -0.406368 0.228346 -0.410557
v -0.414296 0.114498 -0.418486
v -0.406368 0.000650 -0.410557
v -0.382887 -0.108822 -0.387076
v -0.344754 -0.209713 -0.348944
v -0.293437 -0.298144 -0.297626
v -0.230906 -0.370718 -0.235096
v -0.181776 0.599714 -0.275416
v -0.230907 0.527140 -0.348944
v -0.271226 0.438708 -0.409286
v -0.301187 0.337818 -0.454125
v -0.319636 0.228346 -0.481737
v -0.325865 0.114498 -0.491060
v -0.319636 0.000650 -0.481737
v -0.301187 -0.108822 -0.454125
v -0.271226 -0.209713 -0.409286
v -0.230907 -0.298144 -0.348944
v -0.181776 -0.370718 -0.275416
v -0.125724 0.599714 -0.305376
v -0.159566 0.527140 -0.387076
v -0.187339 0.438708 -0.454125
v -0.187339 -0.209713 -0.454125
v -0.159566 -0.298144 -0.387076
v -0.125724 -0.370718 -0.305376
v -0.064905 0.599714 -0.323826
v -0.082158 0.527140 -0.410557
v -0.096315 0.438708 -0.481736
v -0.096315 -0.209713 -0.481736
v -0.082158 -0.298144 -0.410557
v -0.064905 -0.370718 -0.323826
v -0.001655 0.527140 -0.418486
v -0.001655 -0.298144 -0.418486
v -0.001655 -0.370718 -0.330055
v -0.240048 -0.124090 0.234720
v -0.240048 0.352927 0.234720
v -0.240048 -0.124090 -0.242296
v -0.240048 0.352927 -0.242296
v 0.236968 -0.124090 0.234720
v 0.236968 0.352927 0.234720
v 0.236968 -0.124090 -0.242296
v 0.236968 0.352927 -0.242296
v -0.240048 0.114419 0.234720
v -0.240048 0.114419 -0.242296
v 0.236968 0.114419 -0.242296
v 0.236968 0.114419 0.234720
v -0.001540 -0.124090 -0.242296
v -0.001540 0.352927 -0.242296
v -0.001540 -0.124090 0.234720
v -0.001540 0.352927 0.234720
v -0.240048 -0.124090 -0.003787
v -0.240048 0.352927 -0.003787
v 0.236968 -0.124090 -0.003787
v 0.236968 0.352927 -0.003787
v -0.274846 0.114419 0.115239
v -0.274846 0.114419 -0.122815
v 0.271765 0.114419 -0.122815
v 0.271765 0.114419 0.115239
v -0.001540 -0.158886 -0.084720
v -0.001540 -0.158886 0.077144
v 0.089562 0.387724 -0.122815
v 0.180663 0.387724 -0.122815
v 0.180663 0.387724 0.115239
v 0.089562 0.387724 0.115239
v -0.092642 0.387724 0.115239
v -0.183744 0.387724 0.115239
v -0.183744 0.387724 -0.122815
v -0.092642 0.387724 -0.122815
v -0.274846 0.251071 0.115239
v -0.274846 0.251071 -0.122815
v 0.271765 0.251071 -0.122815
v 0.271765 0.251071 0.115239
v -0.001540 0.251071 0.115239
v -0.001540 0.251071 -0.122815
vn -0.2384 -0.8317 -0.5015
vn -0.8640 -0.5034 0.0075
vn -0.8679 -0.4036 -0.2895
vn -0.8585 -0.2912 -0.4221
vn -0.1162 -0.6696 -0.7336
vn -0.9006 -0.0531 -0.4314
vn -0.5016 -0.1479 -0.8524
vn -0.8514 0.0565 -0.5215
vn -0.1829 0.0454 -0.9821
vn -0.8316 0.3053 -0.4639
vn -0.2086 0.5075 -0.8360
vn -0.7762 0.5323 -0.3380
vn 0.2419 0.7306 -0.6386
vn -0.8300 0.5572 -0.0260
vn -0.0001 0.9958 -0.0921
vn -0.8725 0.4608 0.1623
vn -0.1301 0.9582 0.2547
vn -0.9172 0.2794 0.2841
vn -0.5196 0.6213 0.5865
vn -0.8493 0.2707 0.4532
vn -0.1780 0.5444 0.8197
vn 0.0122 -0.9885 0.1505
vn -0.9365 -0.3502 0.0174
vn -0.8272 -0.0017 0.5619
vn 0.0810 0.1498 0.9854
vn -0.8664 -0.2539 0.4300
vn -0.2197 -0.4136 0.8836
vn -0.8897 -0.3633 0.2764
vn 0.0842 -0.6241 0.7768
vn -0.6715 -0.7383 0.0628
vn -0.7850 -0.2536 -0.5652
vn -0.3763 -0.8762 -0.3011
vn -0.5014 -0.8651 -0.0141
vn -0.2529 -0.8698 -0.4237
vn -0.6037 -0.1367 -0.7854
vn -0.0148 -0.9113 -0.4115
vn -0.0733 -0.5233 -0.8490
vn 0.1021 -0.8641 -0.4929
vn 0.1302 -0.2074 -0.9696
vn 0.3449 -0.8421 -0.4146
vn 0.5780 -0.2280 -0.7836
vn 0.5602 -0.7828 -0.2710
vn 0.7827 0.2280 -0.5791
vn 0.5581 -0.8286 0.0432
vn 1.0000 0.0007 -0.0058
vn 0.4459 -0.8667 0.2235
vn 0.9328 -0.1206 0.3396
vn 0.2547 -0.9089 0.3303
vn 0.5689 -0.5027 0.6509
vn 0.2313 -0.8368 0.4962
vn 0.4717 -0.1557 0.8679
vn -0.3496 -0.9368 0.0109
vn -0.9978 0.0129 0.0643
vn -0.0494 -0.8128 0.5805
vn 0.0641 0.1062 0.9923
vn -0.2892 -0.8561 0.4283
vn -0.4881 -0.1987 0.8499
vn -0.3850 -0.8836 0.2665
vn -0.6889 0.1017 0.7176
vn -0.7404 -0.6720 0.0158
vn -0.4755 0.2536 -0.8424
vn -0.2580 0.8762 -0.4071
vn 0.0411 0.8651 -0.4999
vn -0.3934 0.8698 -0.2979
vn -0.7143 0.1367 -0.6863
vn -0.4134 0.9081 -0.0658
vn -0.8358 0.5233 -0.1661
vn -0.5518 0.8320 0.0574
vn -0.9780 0.2074 0.0229
vn -0.5466 0.6470 0.5316
vn -0.9330 0.1508 0.3269
vn -0.3199 0.3852 0.8656
vn -0.7453 -0.1853 0.6404
vn -0.0055 0.1733 0.9849
vn -0.1160 -0.0007 0.9932
vn 0.1543 0.5088 0.8470
vn 0.1775 0.1192 0.9769
vn 0.2229 0.7622 0.6077
vn 0.3937 0.4098 0.8229
vn 0.5691 0.7432 0.3519
vn 0.9248 0.1453 0.3515
vn 0.5007 0.8483 0.1724
vn 0.0492 0.9354 -0.3503
vn 0.1736 -0.0129 -0.9847
vn 0.5824 0.8128 0.0147
vn 0.9792 -0.1062 0.1727
vn 0.4586 0.8551 -0.2417
vn 0.8984 0.1987 -0.3918
vn 0.3072 0.8836 -0.3533
vn 0.7890 -0.1017 -0.6059
vn 0.0971 0.6720 -0.7342
vn 0.2753 -0.5456 -0.7916
vn 0.8775 0.0005 -0.4796
vn 0.8865 -0.2894 -0.3611
vn 0.8774 -0.4149 -0.2409
vn 0.1547 -0.7705 -0.6184
vn 0.9129 -0.4082 -0.0016
vn 0.5281 -0.8454 -0.0801
vn 0.8631 -0.4925 0.1122
vn 0.2076 -0.9717 0.1124
vn 0.8347 -0.4201 0.3561
vn 0.2163 -0.7964 0.5648
vn 0.7695 -0.2818 0.5731
vn -0.2454 -0.5982 0.7628
vn 0.8142 0.0325 0.5797
vn -0.0258 -0.0295 0.9992
vn 0.8545 0.2156 0.4727
vn 0.0960 0.3178 0.9433
vn 0.9010 0.3270 0.2852
vn 0.4859 0.6388 0.5965
vn 0.8289 0.4932 0.2640
vn 0.1406 0.8569 0.4959
vn 0.0119 0.0879 -0.9961
vn 0.9453 0.0221 -0.3255
vn 0.8116 0.5840 -0.0152
vn -0.1114 0.9901 0.0848
vn 0.8615 0.4377 -0.2574
vn 0.2077 0.8618 -0.4627
vn 0.8920 0.2783 -0.3562
vn -0.0871 0.7335 -0.6741
vn 0.6903 0.0355 -0.7227
vn -0.6218 0.7165 0.3163
vn 0.0320 0.9451 -0.3253
vn 0.0624 0.7715 -0.6332
vn 0.0759 -0.6326 -0.7708
vn 0.0759 0.6326 -0.7708
vn 0.0624 -0.7715 -0.6332
vn -0.0000 -0.9414 -0.3373
vn 0.1207 0.9095 -0.3978
vn 0.1847 0.7715 -0.6088
vn 0.2248 -0.6326 -0.7412
vn 0.2248 0.6326 -0.7412
vn 0.1847 -0.7715 -0.6088
vn 0.9570 -0.0919 0.2750
vn 0.3651 -0.6326 -0.6831
vn 0.3651 0.6326 -0.6831
vn 0.2999 -0.7715 -0.5611
vn -0.6571 -0.7415 -0.1360
vn -0.0000 -0.2478 0.9688
vn -0.9573 -0.0922 0.2740
vn -0.9453 -0.0251 -0.3252
vn -0.9492 -0.0000 -0.3146
vn -0.9586 0.0937 -0.2689
vn -0.0924 0.3336 0.9382
vn 0.4162 -0.4696 -0.7786
vn 0.2999 0.7715 -0.5611
vn 0.6314 -0.0975 -0.7693
vn 0.6073 -0.2890 -0.7400
vn 0.5601 -0.4696 -0.6825
vn 0.4036 0.7715 -0.4918
vn 0.4913 -0.6326 -0.5987
vn 0.4913 0.6326 -0.5987
vn 0.4036 -0.7715 -0.4918
vn 0.5601 0.4696 -0.6825
vn 0.6073 0.2890 -0.7400
vn 0.6314 0.0975 -0.7693
vn 0.6314 0.0976 -0.7693
vn 0.5987 0.6326 -0.4913
vn 0.4918 -0.7715 -0.4036
vn 0.6825 0.4696 -0.5601
vn 0.7400 0.2890 -0.6073
vn 0.7693 0.0975 -0.6314
vn 0.7693 0.0976 -0.6314
vn 0.7693 -0.0975 -0.6314
vn 0.7693 -0.0976 -0.6314
vn 0.7400 -0.2890 -0.6073
vn 0.6825 -0.4696 -0.5601
vn 0.4918 0.7715 -0.4036
vn 0.5987 -0.6326 -0.4913
vn 0.3250 -0.0000 0.9457
vn 0.2809 0.0902 0.9555
vn 0.7786 -0.4696 -0.4162
vn 0.5611 0.7715 -0.2999
vn 0.6831 -0.6326 -0.3651
vn 0.6831 0.6326 -0.3651
vn 0.5611 -0.7715 -0.2999
vn 0.1441 -0.7406 0.6563
vn 0.3352 -0.0241 0.9418
vn 0.6088 -0.7715 -0.1847
vn -0.9708 -0.2398 -0.0000
vn -0.8932 0.3589 0.2709
vn 0.4003 0.9083 -0.1214
vn 0.6088 0.7715 -0.1847
vn 0.7412 -0.6326 -0.2248
vn 0.7412 0.6326 -0.2248
vn 0.3276 0.9443 -0.0323
vn 0.6332 0.7715 -0.0624
vn 0.7708 -0.6326 -0.0759
vn 0.7708 0.6326 -0.0759
vn 0.6332 -0.7715 -0.0624
vn 0.3400 -0.9404 -0.0000
vn -0.2807 -0.0902 0.9555
vn 0.2810 -0.0902 0.9555
vn -0.2629 -0.0955 -0.9601
vn 0.4031 -0.9070 0.1223
vn 0.3281 0.9441 0.0323
vn 0.6332 0.7715 0.0624
vn 0.7708 -0.6326 0.0759
vn 0.7708 0.6326 0.0759
vn 0.6332 -0.7715 0.0624
vn 0.4025 0.9073 0.1221
vn 0.6088 0.7715 0.1847
vn 0.7412 -0.6326 0.2248
vn 0.7412 0.6326 0.2248
vn 0.6088 -0.7715 0.1847
vn -0.4006 -0.9082 -0.1215
vn 0.2631 -0.0954 -0.9600
vn 0.3211 -0.0255 -0.9467
vn 0.3102 -0.0000 -0.9507
vn 0.2631 0.0954 -0.9600
vn -0.8819 -0.0049 -0.4714
vn 0.7786 -0.4696 0.4162
vn 0.5611 0.7715 0.2999
vn 0.6831 -0.6326 0.3651
vn 0.6831 0.6326 0.3651
vn 0.5611 -0.7715 0.2999
vn 0.1315 -0.7419 -0.6575
vn 0.6825 -0.4696 0.5601
vn 0.4918 0.7715 0.4036
vn 0.5987 -0.6326 0.4913
vn 0.5987 0.6326 0.4913
vn 0.4918 -0.7715 0.4036
vn 0.6825 0.4696 0.5601
vn 0.7400 0.2890 0.6073
vn 0.7693 0.0976 0.6314
vn 0.7693 -0.0976 0.6314
vn 0.7400 -0.2890 0.6073
vn 0.6314 0.0975 0.7693
vn 0.6314 -0.0975 0.7693
vn 0.6314 -0.0976 0.7693
vn 0.6073 -0.2890 0.7400
vn 0.5601 -0.4696 0.6825
vn 0.4036 0.7715 0.4918
vn 0.4913 -0.6326 0.5987
vn 0.4913 0.6326 0.5987
vn 0.4036 -0.7715 0.4918
vn 0.5601 0.4696 0.6825
vn 0.6073 0.2890 0.7400
vn 0.2999 0.7715 0.5611
vn 0.3651 -0.6326 0.6831
vn 0.3651 0.6326 0.6831
vn 0.2999 -0.7715 0.5611
vn -0.6568 -0.7412 0.1387
vn -0.9436 -0.0246 0.3301
vn -0.9476 -0.0000 0.3195
vn -0.9573 0.0922 0.2739
vn 0.4162 -0.4696 0.7786
vn -0.2718 0.3507 -0.8962
vn 0.1228 0.9061 0.4048
vn 0.1847 0.7715 0.6088
vn 0.2248 -0.6326 0.7412
vn 0.2248 0.6326 0.7412
vn 0.1847 -0.7715 0.6088
vn -0.0000 -0.2325 -0.9726
vn 0.0759 -0.6326 0.7708
vn 0.0759 0.6326 0.7708
vn 0.0624 -0.7715 0.6332
vn -0.0000 -0.9395 0.3425
vn 0.1209 -0.9092 -0.3984
vn 0.0325 0.9434 0.3302
vn 0.0624 0.7715 0.6332
vn -0.9586 -0.0937 -0.2689
vn -0.1229 -0.9059 0.4053
vn -0.0325 0.9434 0.3301
vn -0.0624 0.7715 0.6332
vn -0.0759 -0.6326 0.7708
vn -0.0759 0.6326 0.7708
vn -0.0624 -0.7715 0.6332
vn 0.1230 -0.9058 0.4054
vn 0.9583 -0.0934 -0.2699
vn -0.1847 -0.7715 0.6088
vn -0.1208 -0.9093 -0.3983
vn -0.1228 0.9062 0.4047
vn -0.1847 0.7715 0.6088
vn -0.2248 -0.6326 0.7412
vn -0.2248 0.6326 0.7412
vn 0.9571 0.0919 0.2749
vn 0.4714 -0.0077 -0.8819
vn -0.4162 -0.4696 0.7786
vn -0.2999 0.7715 0.5611
vn -0.3651 -0.6326 0.6831
vn -0.3651 0.6326 0.6831
vn -0.2999 -0.7715 0.5611
vn 0.6568 -0.7411 0.1394
vn 0.9433 -0.0245 0.3309
vn 0.9473 -0.0000 0.3204
vn -0.5601 0.4696 0.6825
vn -0.6073 0.2890 0.7400
vn -0.6314 0.0975 0.7693
vn -0.6314 -0.0975 0.7693
vn -0.6073 -0.2890 0.7400
vn -0.5601 -0.4696 0.6825
vn -0.4036 0.7715 0.4918
vn -0.4913 -0.6326 0.5987
vn -0.4913 0.6326 0.5987
vn -0.4036 -0.7715 0.4918
vn -0.7400 -0.2890 0.6073
vn -0.6825 -0.4696 0.5601
vn -0.4918 0.7715 0.4036
vn -0.5987 -0.6326 0.4913
vn -0.5987 0.6326 0.4913
vn -0.4918 -0.7715 0.4036
vn -0.6825 0.4696 0.5601
vn -0.7400 0.2890 0.6073
vn -0.7693 0.0975 0.6314
vn -0.7693 -0.0975 0.6314
vn -0.3209 -0.0255 -0.9468
vn -0.3099 -0.0000 -0.9508
vn -0.2628 0.0955 -0.9601
vn -0.7786 -0.4696 0.4162
vn -0.5611 0.7715 0.2999
vn -0.6831 -0.6326 0.3651
vn -0.6831 0.6326 0.3651
vn -0.5611 -0.7715 0.2999
vn -0.1313 -0.7419 -0.6575
vn 0.8944 0.3557 -0.2713
vn -0.4021 0.9074 0.1220
vn -0.6088 0.7715 0.1847
vn -0.7412 -0.6326 0.2248
vn -0.7412 0.6326 0.2248
vn -0.6088 -0.7715 0.1847
vn -0.4027 -0.9071 0.1222
vn 0.9706 -0.2406 -0.0000
vn -0.3278 0.9442 0.0323
vn -0.6332 0.7715 0.0624
vn -0.7708 -0.6326 0.0759
vn -0.7708 0.6326 0.0759
vn -0.6332 -0.7715 0.0624
vn -0.3397 -0.9405 -0.0000
vn -0.3273 0.9444 -0.0322
vn -0.6332 0.7715 -0.0624
vn -0.7708 -0.6326 -0.0759
vn -0.7708 0.6326 -0.0759
vn -0.6332 -0.7715 -0.0624
vn -0.4000 0.9085 -0.1213
vn -0.6088 0.7715 -0.1847
vn -0.7412 -0.6326 -0.2248
vn -0.7412 0.6326 -0.2248
vn -0.6088 -0.7715 -0.1847
vn 0.4010 -0.9080 -0.1216
vn -0.6831 -0.6326 -0.3651
vn -0.6831 0.6326 -0.3651
vn -0.5611 -0.7715 -0.2999
vn -0.1439 -0.7406 0.6563
vn -0.3349 -0.0241 0.9419
vn -0.3247 -0.0000 0.9458
vn -0.2806 0.0903 0.9556
vn 0.8819 0.0038 0.4714
vn -0.7786 -0.4696 -0.4162
vn -0.5611 0.7715 -0.2999
vn -0.7693 -0.0975 -0.6314
vn -0.7400 -0.2890 -0.6073
vn -0.6825 -0.4696 -0.5601
vn -0.4918 0.7715 -0.4036
vn -0.5987 -0.6326 -0.4913
vn -0.5987 0.6326 -0.4913
vn -0.4918 -0.7715 -0.4036
vn -0.6825 0.4696 -0.5601
vn -0.7400 0.2890 -0.6073
vn -0.7693 0.0975 -0.6314
vn -0.4913 0.6326 -0.5987
vn -0.4036 -0.7715 -0.4918
vn -0.5601 0.4696 -0.6825
vn -0.6073 0.2890 -0.7400
vn -0.6314 0.0975 -0.7693
vn -0.6314 -0.0975 -0.7693
vn -0.6073 -0.2890 -0.7400
vn -0.5601 -0.4696 -0.6825
vn -0.4036 0.7715 -0.4918
vn -0.4913 -0.6326 -0.5987
vn 0.9490 -0.0000 -0.3154
vn 0.9584 0.0934 -0.2699
vn -0.4162 -0.4696 -0.7786
vn -0.2999 0.7715 -0.5611
vn -0.3651 -0.6326 -0.6831
vn -0.3651 0.6326 -0.6831
vn -0.2999 -0.7715 -0.5611
vn 0.6570 -0.7414 -0.1367
vn 0.9450 -0.0250 -0.3260
vn -0.1847 -0.7715 -0.6088
vn 0.2704 0.3639 0.8913
vn -0.1206 0.9096 -0.3977
vn -0.1847 0.7715 -0.6088
vn -0.2248 -0.6326 -0.7412
vn -0.2248 0.6326 -0.7412
vn -0.0320 0.9451 -0.3253
vn -0.0624 0.7715 -0.6332
vn -0.0759 -0.6326 -0.7708
vn -0.0759 0.6326 -0.7708
vn -0.0624 -0.7715 -0.6332
vn -0.0000 0.9416 -0.3367
vn 0.0321 -0.9449 -0.3258
vn 0.4162 0.4696 -0.7786
vn -0.0924 -0.3338 0.9381
vn -0.2704 -0.3639 0.8913
vn -0.4714 -0.0066 0.8819
vn -0.6337 0.0466 0.7722
vn -0.9453 0.0251 -0.3252
vn -0.0000 0.2476 0.9689
vn -0.6337 -0.0466 0.7722
vn -0.4714 0.0066 0.8819
vn -0.2704 0.3637 0.8914
vn -0.6571 0.7415 -0.1355
vn 0.6314 -0.0976 -0.7693
vn 0.3352 0.0241 0.9418
vn 0.1435 0.7407 0.6564
vn 0.7786 0.4696 -0.4162
vn -0.7721 0.0478 0.6337
vn -0.8819 -0.0030 0.4714
vn -0.8931 -0.3591 0.2709
vn -0.9404 -0.3271 0.0926
vn -0.7721 -0.0478 0.6337
vn -0.9709 0.2396 -0.0000
vn -0.8819 0.0030 0.4714
vn -0.9405 0.3269 0.0926
vn 0.3394 0.9406 -0.0000
vn 0.3281 -0.9441 -0.0323
vn 0.3286 -0.9439 0.0324
vn 0.3211 0.0255 -0.9467
vn -0.9410 0.3256 -0.0927
vn -0.8946 0.3550 -0.2714
vn -0.7717 -0.0583 -0.6333
vn 0.1309 0.7420 -0.6575
vn 0.7786 0.4696 0.4162
vn -0.9409 -0.3258 -0.0927
vn -0.8945 -0.3552 -0.2714
vn -0.8819 0.0049 -0.4714
vn -0.7717 0.0584 -0.6333
vn 0.6314 0.0976 0.7693
vn 0.4162 0.4696 0.7786
vn -0.9436 0.0246 0.3301
vn -0.6569 0.7412 0.1381
vn -0.6333 -0.0594 -0.7716
vn -0.0000 0.2324 -0.9726
vn -0.4714 -0.0081 -0.8819
vn -0.0929 0.3196 -0.9430
vn -0.6333 0.0595 -0.7716
vn -0.4714 0.0081 -0.8819
vn -0.2718 -0.3509 -0.8961
vn -0.0929 -0.3198 -0.9429
vn 0.0326 -0.9432 0.3307
vn -0.0000 0.9397 0.3419
vn -0.0326 -0.9432 0.3307
vn 0.0929 0.3197 -0.9430
vn 0.2718 0.3509 -0.8961
vn 0.6333 -0.0588 -0.7717
vn 0.6568 0.7412 0.1388
vn -0.4162 0.4696 0.7786
vn 0.0929 -0.3198 -0.9429
vn 0.2718 -0.3511 -0.8960
vn 0.4714 0.0077 -0.8819
vn 0.6333 0.0589 -0.7717
vn 0.9433 0.0245 0.3309
vn -0.3208 0.0255 -0.9468
vn -0.1308 0.7420 -0.6575
vn -0.7786 0.4696 0.4162
vn 0.7717 -0.0576 -0.6333
vn 0.9707 0.2405 -0.0000
vn 0.8819 -0.0040 -0.4714
vn 0.9407 0.3263 -0.0927
vn 0.7717 0.0577 -0.6333
vn 0.8819 0.0040 -0.4714
vn 0.8943 -0.3559 -0.2713
vn 0.9406 -0.3265 -0.0926
vn -0.3392 0.9407 -0.0000
vn -0.3284 -0.9440 0.0323
vn -0.3279 -0.9442 -0.0323
vn -0.7786 0.4696 -0.4162
vn 0.9402 -0.3279 0.0926
vn 0.8928 -0.3598 0.2708
vn 0.8819 -0.0038 0.4714
vn 0.7722 0.0471 0.6337
vn -0.3349 0.0241 0.9419
vn 0.9402 0.3277 0.0926
vn 0.8929 0.3596 0.2709
vn 0.7722 -0.0471 0.6337
vn -0.1434 0.7407 0.6564
vn 0.9450 0.0250 -0.3260
vn 0.6571 0.7414 -0.1362
vn -0.4162 0.4696 -0.7786
vn 0.6337 0.0460 0.7722
vn 0.4714 -0.0071 0.8819
vn 0.2704 -0.3641 0.8913
vn 0.0924 -0.3338 0.9381
vn 0.6337 -0.0460 0.7722
vn 0.4714 0.0071 0.8819
vn 0.0924 0.3337 0.9382
vn -0.0321 -0.9449 -0.3258
vn -0.0000 -0.8496 -0.5274
vn -0.6980 -0.3161 0.6425
vn -0.6980 -0.3162 -0.6425
vn -0.3722 0.6954 -0.6147
vn 0.3722 0.6954 0.6148
vn 0.3722 0.6954 -0.6147
vn 0.3722 0.6954 0.6147
vn -0.0000 0.2887 -0.9574
vn 0.7295 0.2209 -0.6473
vn -0.3722 0.6954 0.6147
vn -0.0000 0.2887 0.9574
vn 0.6980 -0.3161 0.6425
vn 0.6980 -0.3162 -0.6425
vn -0.7295 0.2209 0.6473
vn 0.7295 0.2209 0.6473
vn -0.7295 0.2209 -0.6473
vn -0.0000 -0.8496 0.5274
vt 0.681537 0.866892
vt 0.666758 0.819955
vt 0.697096 0.850302
vt 0.735923 0.871197
vt 0.725654 0.891491
vt 0.780968 0.868749
vt 0.781257 0.891491
vt 0.821049 0.856305
vt 0.828352 0.877844
vt 0.851792 0.824857
vt 0.868737 0.840027
vt 0.873861 0.781760
vt 0.889383 0.798383
vt 0.867172 0.739115
vt 0.889764 0.736488
vt 0.845443 0.700219
vt 0.865036 0.688669
vt 0.807081 0.675284
vt 0.821175 0.657434
vt 0.767697 0.661694
vt 0.774908 0.640124
vt 0.644300 0.816358
vt 0.662560 0.775504
vt 0.721042 0.666215
vt 0.723317 0.643585
vt 0.687444 0.693517
vt 0.672743 0.676163
vt 0.658767 0.731626
vt 0.644964 0.713550
vt 0.639826 0.774821
vt 0.707453 0.239710
vt 0.723011 0.256299
vt 0.692673 0.286646
vt 0.761838 0.235404
vt 0.751570 0.215110
vt 0.806884 0.237852
vt 0.807172 0.215110
vt 0.846964 0.250297
vt 0.854267 0.228758
vt 0.877708 0.281745
vt 0.894653 0.266575
vt 0.899777 0.324842
vt 0.915299 0.308218
vt 0.893088 0.367487
vt 0.915679 0.370114
vt 0.871359 0.406383
vt 0.890952 0.417933
vt 0.832996 0.431317
vt 0.847090 0.449168
vt 0.793612 0.444908
vt 0.800824 0.466478
vt 0.688476 0.331098
vt 0.670215 0.290244
vt 0.746958 0.440387
vt 0.749232 0.463017
vt 0.713360 0.413085
vt 0.698658 0.430439
vt 0.684682 0.374975
vt 0.670879 0.393052
vt 0.665742 0.331781
vt 0.672111 0.420674
vt 0.655382 0.436059
vt 0.625353 0.405447
vt 0.675883 0.475061
vt 0.696262 0.464998
vt 0.672997 0.520049
vt 0.695719 0.520559
vt 0.660146 0.559970
vt 0.681593 0.567491
vt 0.620690 0.622723
vt 0.651670 0.671201
vt 0.573445 0.656018
vt 0.583111 0.676965
vt 0.525377 0.663710
vt 0.519050 0.685896
vt 0.490782 0.627102
vt 0.482199 0.648515
vt 0.468968 0.577392
vt 0.442181 0.629369
vt 0.471929 0.539535
vt 0.442181 0.510680
vt 0.466261 0.504806
vt 0.580976 0.400819
vt 0.621978 0.382971
vt 0.471217 0.458229
vt 0.448583 0.460290
vt 0.498815 0.424913
vt 0.481613 0.410059
vt 0.537167 0.396616
vt 0.519233 0.382653
vt 0.580507 0.378096
vt 0.673555 0.035841
vt 0.688335 0.082778
vt 0.657997 0.052431
vt 0.619170 0.031536
vt 0.629439 0.011242
vt 0.574125 0.033984
vt 0.573836 0.011242
vt 0.534044 0.046429
vt 0.526741 0.024889
vt 0.503301 0.077877
vt 0.486355 0.062706
vt 0.481232 0.120974
vt 0.465709 0.104350
vt 0.487921 0.163618
vt 0.465329 0.166246
vt 0.509650 0.202514
vt 0.490057 0.214064
vt 0.548012 0.227449
vt 0.533918 0.245300
vt 0.587396 0.241040
vt 0.580184 0.262610
vt 0.710793 0.086376
vt 0.692533 0.127230
vt 0.634050 0.236519
vt 0.631776 0.259149
vt 0.667649 0.209216
vt 0.682350 0.226570
vt 0.696326 0.171107
vt 0.710129 0.189184
vt 0.715266 0.127913
vt 0.635439 0.588436
vt 0.228844 0.283408
vt 0.185071 0.291073
vt 0.187891 0.269805
vt 0.353789 0.338070
vt 0.372367 0.368432
vt 0.345115 0.355377
vt 0.156126 0.286686
vt 0.159790 0.263117
vt 0.332771 0.327898
vt 0.323503 0.343533
vt 0.119511 0.280842
vt 0.122601 0.256634
vt 0.297482 0.311623
vt 0.282390 0.340449
vt 0.224637 0.315845
vt 0.185083 0.315943
vt 0.336188 0.373398
vt 0.152818 0.310516
vt 0.310569 0.360668
vt 0.115934 0.304391
vt 0.170833 0.653623
vt 0.189224 0.629881
vt 0.187944 0.656708
vt 0.148571 0.334138
vt 0.328263 0.392410
vt 0.302851 0.381540
vt 0.112254 0.328348
vt 0.280299 0.372111
vt 0.281630 0.337980
vt 0.016086 0.349439
vt 0.014546 0.252730
vt 0.203962 0.585782
vt 0.204628 0.553661
vt 0.220766 0.563267
vt 0.252679 0.330005
vt 0.258548 0.369354
vt 0.240852 0.364777
vt 0.223651 0.357592
vt 0.222153 0.316878
vt 0.204053 0.346041
vt 0.380248 0.351101
vt 0.452738 0.382320
vt 0.178746 0.340056
vt 0.365006 0.386648
vt 0.217724 0.375922
vt 0.197399 0.369766
vt 0.173172 0.363491
vt 0.350483 0.423543
vt 0.320698 0.411841
vt 0.144496 0.357267
vt 0.295422 0.402264
vt 0.109207 0.351610
vt 0.273073 0.394166
vt 0.253415 0.387436
vt 0.235682 0.381579
vt 0.313601 0.431245
vt 0.287916 0.422710
vt 0.140547 0.379549
vt 0.106536 0.373925
vt 0.265212 0.415676
vt 0.247041 0.404849
vt 0.230749 0.398165
vt 0.213490 0.394497
vt 0.192262 0.393159
vt 0.168570 0.386292
vt 0.221592 0.430448
vt 0.193485 0.424610
vt 0.195007 0.426213
vt 0.164624 0.408362
vt 0.343249 0.442354
vt 0.307031 0.450411
vt 0.136738 0.400836
vt 0.280535 0.442804
vt 0.104205 0.394976
vt 0.246271 0.441631
vt 0.132248 0.420768
vt 0.101988 0.415786
vt 0.014503 0.434530
vt 0.329449 0.479009
vt 0.336068 0.460996
vt 0.400503 0.526884
vt 0.155859 0.427161
vt 0.301826 0.469187
vt 0.279196 0.463045
vt 0.183953 0.452076
vt 0.150686 0.443665
vt 0.296406 0.486909
vt 0.128685 0.439524
vt 0.275713 0.479717
vt 0.099649 0.435383
vt 0.243255 0.469590
vt 0.248480 0.440532
vt 0.342481 0.203127
vt 0.384289 0.174232
vt 0.364047 0.214380
vt 0.146685 0.718966
vt 0.158846 0.679913
vt 0.172174 0.692174
vt 0.231852 0.493958
vt 0.269025 0.495038
vt 0.258959 0.511929
vt 0.149135 0.460551
vt 0.323244 0.496817
vt 0.290231 0.504268
vt 0.126108 0.457971
vt 0.097243 0.454191
vt 0.232771 0.495744
vt 0.182366 0.479159
vt 0.150093 0.480398
vt 0.317184 0.514638
vt 0.283359 0.522074
vt 0.124054 0.476835
vt 0.094547 0.472532
vt 0.415526 0.213004
vt 0.398980 0.218376
vt 0.213858 0.522374
vt 0.232837 0.523956
vt 0.206547 0.489204
vt 0.198426 0.519051
vt 0.183590 0.513490
vt 0.180338 0.480087
vt 0.166716 0.504390
vt 0.305609 0.551620
vt 0.311224 0.532821
vt 0.370261 0.599292
vt 0.145614 0.500008
vt 0.277221 0.540608
vt 0.121094 0.495685
vt 0.253364 0.531550
vt 0.091982 0.491534
vt 0.017785 0.508925
vt 0.161572 0.524088
vt 0.141398 0.519124
vt 0.271198 0.559441
vt 0.117882 0.514250
vt 0.247551 0.550836
vt 0.089601 0.509917
vt 0.227320 0.543913
vt 0.209906 0.538342
vt 0.194414 0.533580
vt 0.178934 0.529022
vt 0.190395 0.547885
vt 0.175578 0.544728
vt 0.157422 0.543517
vt 0.137587 0.537739
vt 0.299649 0.570602
vt 0.265162 0.578013
vt 0.114651 0.532127
vt 0.241278 0.569670
vt 0.087389 0.527462
vt 0.293462 0.589692
vt 0.259176 0.595958
vt 0.111303 0.549136
vt 0.234531 0.587862
vt 0.085175 0.543982
vt 0.182235 0.575347
vt 0.158150 0.569443
vt 0.159340 0.570792
vt 0.134079 0.555730
vt 0.279449 0.623719
vt 0.287114 0.609159
vt 0.344214 0.667560
vt 0.126451 0.570738
vt 0.253776 0.612517
vt 0.107371 0.564899
vt 0.232879 0.605806
vt 0.083234 0.560313
vt 0.016581 0.572742
vt 0.103960 0.579797
vt 0.248147 0.627925
vt 0.229313 0.620447
vt 0.080973 0.575629
vt 0.200756 0.609674
vt 0.206083 0.584666
vt 0.149241 0.592096
vt 0.121632 0.584009
vt 0.222502 0.633568
vt 0.212660 0.647749
vt 0.119713 0.597651
vt 0.272729 0.638523
vt 0.241704 0.642874
vt 0.101236 0.594467
vt 0.078464 0.590251
vt 0.189808 0.631760
vt 0.305685 0.280570
vt 0.315023 0.238672
vt 0.333080 0.256237
vt 0.098670 0.609194
vt 0.075510 0.604406
vt 0.339013 0.310563
vt 0.343852 0.289418
vt 0.146228 0.614675
vt 0.119434 0.613606
vt 0.266430 0.653509
vt 0.234788 0.658101
vt 0.145077 0.643297
vt 0.131495 0.634351
vt 0.254169 0.684979
vt 0.260545 0.668829
vt 0.312543 0.729978
vt 0.114460 0.629024
vt 0.228290 0.674292
vt 0.095202 0.623807
vt 0.206497 0.665016
vt 0.072801 0.618843
vt 0.015908 0.627992
vt 0.166592 0.624284
vt 0.157407 0.649319
vt 0.144463 0.615264
vt 0.180943 0.674425
vt 0.165594 0.667275
vt 0.152253 0.661349
vt 0.139344 0.655582
vt 0.125422 0.649888
vt 0.109459 0.643845
vt 0.221882 0.690774
vt 0.091424 0.637875
vt 0.199856 0.682343
vt 0.070104 0.632668
vt 0.119952 0.665336
vt 0.104399 0.657955
vt 0.247783 0.701088
vt 0.215729 0.707345
vt 0.087473 0.651149
vt 0.192938 0.699878
vt 0.067510 0.645707
vt 0.146664 0.673205
vt 0.134190 0.667575
vt 0.132634 0.701275
vt 0.106546 0.687908
vt 0.117654 0.692274
vt 0.098825 0.670980
vt 0.241465 0.716889
vt 0.210343 0.723740
vt 0.083369 0.663233
vt 0.186595 0.718221
vt 0.065013 0.657806
vt 0.229411 0.746856
vt 0.235479 0.732180
vt 0.286638 0.789557
vt 0.090905 0.678598
vt 0.206470 0.739299
vt 0.079234 0.673596
vt 0.187600 0.734752
vt 0.063099 0.669238
vt 0.010859 0.675981
vt 0.115023 0.695235
vt 0.087401 0.688352
vt 0.202440 0.754211
vt 0.075955 0.683417
vt 0.183408 0.750346
vt 0.061444 0.679850
vt 0.141942 0.734585
vt 0.156021 0.696623
vt 0.333371 0.011957
vt 0.232474 0.049049
vt 0.229490 0.011346
vt 0.452956 0.231383
vt 0.427353 0.227261
vt 0.437761 0.217190
vt 0.187878 0.051216
vt 0.184463 0.017516
vt 0.426799 0.203156
vt 0.135169 0.024490
vt 0.137034 0.053606
vt 0.397216 0.174591
vt 0.371352 0.201792
vt 0.332843 0.078423
vt 0.241864 0.087023
vt 0.444764 0.243231
vt 0.415363 0.238217
vt 0.189802 0.085331
vt 0.136539 0.082991
vt 0.234030 0.127878
vt 0.187002 0.119510
vt 0.383429 0.233635
vt 0.134334 0.111642
vt 0.019227 0.146187
vt 0.010859 0.032355
vt 0.360115 0.144413
vt 0.323248 0.188038
vt 0.304420 0.170807
vt 0.319428 0.109946
vt 0.277357 0.142154
vt 0.426372 0.270102
vt 0.435985 0.256249
vt 0.479352 0.317514
vt 0.403233 0.252014
vt 0.287703 0.193061
vt 0.260242 0.177216
vt 0.224452 0.163526
vt 0.391386 0.267786
vt 0.182168 0.152819
vt 0.369184 0.251319
vt 0.132740 0.144847
vt 0.348293 0.235365
vt 0.328585 0.220920
vt 0.309176 0.206991
vt 0.380185 0.284830
vt 0.355944 0.270045
vt 0.176818 0.184135
vt 0.130619 0.175698
vt 0.297206 0.225925
vt 0.276050 0.216521
vt 0.247835 0.209376
vt 0.215758 0.195748
vt 0.416621 0.285215
vt 0.278897 0.263110
vt 0.245014 0.251108
vt 0.246167 0.253366
vt 0.208549 0.225368
vt 0.406937 0.301275
vt 0.370072 0.302622
vt 0.171237 0.213082
vt 0.128193 0.204306
vt 0.125694 0.231332
vt 0.388486 0.334273
vt 0.397590 0.318013
vt 0.195832 0.249017
vt 0.361762 0.320557
vt 0.165151 0.238949
vt 0.308232 0.279259
vt 0.221533 0.316957
vt 0.283019 0.339751
vt 0.424633 0.452044
vt 0.357786 0.404902
vt 0.248560 0.440741
vt 0.194135 0.424586
vt 0.179960 0.480351
vt 0.233166 0.495376
vt 0.205924 0.584867
vt 0.158795 0.569162
vt 0.144489 0.615840
vt 0.189978 0.631353
vt 0.158968 0.714292
vt 0.223847 0.760850
vt 0.121509 0.670070
vt 0.332085 0.106785
vt 0.400062 0.179286
vt 0.511398 0.262887
vt 0.308484 0.280154
vt 0.245180 0.251090
vt 0.455662 0.880941
vt 0.346653 0.944860
vt 0.374967 0.813775
vt 0.391587 0.143399
vt 0.412919 0.087655
vt 0.412919 0.143399
vt 0.357033 0.067380
vt 0.378366 0.011636
vt 0.378366 0.067380
vt 0.470542 0.862547
vt 0.457810 0.881048
vt 0.457435 0.880997
vt 0.457866 0.881562
vt 0.458119 0.881615
vt 0.464891 0.894228
vt 0.457034 0.881638
vt 0.457044 0.880918
vt 0.407209 0.692031
vt 0.346653 0.708284
vt 0.458039 0.881009
vt 0.457446 0.881595
vt 0.429465 0.791077
vt 0.488130 0.679452
vt 0.500196 0.794516
vt 0.509466 0.943969
vt 0.521764 0.834312
vt 0.455738 0.881660
vt 0.391587 0.087655
vt 0.357033 0.011636
vt 0.497052 0.983541
vt 0.402479 0.989970
s 1
usemtl マテリアル
f 2/1/1 3/2/2 1/3/3
f 29/4/4 30/5/5 1/3/3
f 27/6/6 28/7/7 29/4/4
f 25/8/8 26/9/9 27/6/6
f 23/10/10 24/11/11 25/8/8
f 21/12/12 22/13/13 23/10/10
f 19/14/14 20/15/15 21/12/12
f 17/16/16 18/17/17 19/14/14
f 15/18/18 16/19/19 17/16/16
f 13/20/20 14/21/21 15/18/18
f 3/2/2 4/22/22 5/23/23
f 11/24/24 12/25/25 13/20/20
f 9/26/26 10/27/27 11/24/24
f 7/28/28 8/29/29 9/26/26
f 5/23/23 6/30/30 7/28/28
f 15/18/18 27/6/6 5/23/23
f 32/31/31 31/32/32 33/33/33
f 59/34/34 31/32/32 60/35/35
f 57/36/36 59/34/34 58/37/37
f 55/38/38 57/36/36 56/39/39
f 53/40/40 55/38/38 54/41/41
f 51/42/42 53/40/40 52/43/43
f 49/44/44 51/42/42 50/45/45
f 47/46/46 49/44/44 48/47/47
f 45/48/48 47/46/46 46/49/49
f 43/50/50 45/48/48 44/51/51
f 33/33/33 35/52/52 34/53/53
f 41/54/54 43/50/50 42/55/55
f 39/56/56 41/54/54 40/57/57
f 37/58/58 39/56/56 38/59/59
f 35/52/52 37/58/58 36/60/60
f 45/48/48 57/36/36 53/40/40
f 62/61/61 61/62/62 63/63/63
f 89/64/64 61/62/62 90/65/65
f 87/66/66 89/64/64 88/67/67
f 85/68/68 87/66/66 86/69/69
f 83/70/70 85/68/68 84/71/71
f 81/72/72 83/70/70 82/73/73
f 79/74/74 81/72/72 80/75/75
f 77/76/76 79/74/74 78/77/77
f 75/78/78 77/76/76 76/79/79
f 124/80/80 74/81/81 73/82/82
f 63/63/63 65/83/83 64/84/84
f 71/85/85 73/82/82 72/86/86
f 69/87/87 71/85/85 70/88/88
f 67/89/89 69/87/87 68/90/90
f 65/83/83 67/89/89 66/91/91
f 65/83/83 73/82/82 69/87/87
f 92/92/92 93/93/93 91/94/94
f 119/95/95 120/96/96 91/94/94
f 117/97/97 118/98/98 119/95/95
f 115/99/99 116/100/100 117/97/97
f 113/101/101 114/102/102 115/99/99
f 111/103/103 112/104/104 113/101/101
f 109/105/105 110/106/106 111/103/103
f 107/107/107 108/108/108 109/105/105
f 105/109/109 106/110/110 107/107/107
f 103/111/111 104/112/112 105/109/109
f 93/93/93 94/113/113 95/114/114
f 101/115/115 102/116/116 103/111/111
f 99/117/117 100/118/118 101/115/115
f 97/119/119 98/120/120 99/117/117
f 95/114/114 96/121/121 97/119/119
f 105/109/109 117/97/97 95/114/114
f 81/72/72 79/74/74 77/76/76
f 123/122/122 75/78/78 124/80/80
f 3/2/2 5/23/23 1/3/3
f 5/23/23 7/28/28 9/26/26
f 1/3/3 5/23/23 27/6/6
f 9/26/26 11/24/24 13/20/20
f 15/18/18 9/26/26 13/20/20
f 15/18/18 17/16/16 19/14/14
f 19/14/14 21/12/12 23/10/10
f 23/10/10 25/8/8 27/6/6
f 27/6/6 29/4/4 1/3/3
f 15/18/18 5/23/23 9/26/26
f 15/18/18 19/14/14 23/10/10
f 23/10/10 27/6/6 15/18/18
f 37/58/58 35/52/52 39/56/56
f 35/52/52 33/33/33 31/32/32
f 39/56/56 35/52/52 45/48/48
f 31/32/32 59/34/34 57/36/36
f 35/52/52 31/32/32 57/36/36
f 57/36/36 55/38/38 53/40/40
f 35/52/52 57/36/36 45/48/48
f 53/40/40 51/42/42 49/44/44
f 45/48/48 49/44/44 47/46/46
f 53/40/40 49/44/44 45/48/48
f 45/48/48 43/50/50 39/56/56
f 43/50/50 41/54/54 39/56/56
f 83/70/70 123/122/122 85/68/68
f 124/80/80 75/78/78 74/81/81
f 67/89/89 65/83/83 69/87/87
f 65/83/83 63/63/63 61/62/62
f 87/66/66 61/62/62 89/64/64
f 65/83/83 61/62/62 87/66/66
f 87/66/66 85/68/68 73/82/82
f 65/83/83 87/66/66 73/82/82
f 85/68/68 123/122/122 124/80/80
f 124/80/80 73/82/82 85/68/68
f 73/82/82 71/85/85 69/87/87
f 93/93/93 95/114/114 91/94/94
f 95/114/114 97/119/119 99/117/117
f 91/94/94 95/114/114 117/97/97
f 99/117/117 101/115/115 103/111/111
f 105/109/109 99/117/117 103/111/111
f 105/109/109 107/107/107 109/105/105
f 109/105/105 111/103/103 113/101/101
f 113/101/101 115/99/99 117/97/97
f 117/97/97 119/95/95 91/94/94
f 105/109/109 95/114/114 99/117/117
f 105/109/109 109/105/105 113/101/101
f 113/101/101 117/97/97 105/109/109
f 77/76/76 75/78/78 83/70/70
f 83/70/70 81/72/72 77/76/76
f 123/122/122 83/70/70 75/78/78
f 389/123/123 131/124/123 127/125/123
f 374/126/124 128/127/124 129/128/124
f 127/125/125 132/129/125 375/130/125
f 126/131/126 129/128/126 130/132/126
f 375/130/127 133/133/127 376/134/127
f 390/135/128 130/132/128 384/136/128
f 131/124/129 383/137/129 137/138/129
f 128/127/130 135/139/130 129/128/130
f 131/124/131 138/140/131 132/129/131
f 130/132/132 135/139/132 136/141/132
f 133/133/133 138/140/133 139/142/133
f 270/143/134 378/144/134 269/145/134
f 137/138/135 149/146/135 138/140/135
f 136/141/136 141/147/136 142/148/136
f 139/142/137 149/146/137 150/149/137
f 136/141/138 143/150/138 384/151/138
f 383/152/139 389/153/139 139/142/139
f 382/154/140 229/155/140 228/156/140
f 387/157/141 144/158/141 145/159/141
f 387/157/142 146/160/142 383/161/142
f 383/137/143 146/160/143 147/162/143
f 128/127/144 125/163/144 390/164/144
f 137/138/145 147/162/145 148/165/145
f 134/166/146 141/147/146 135/139/146
f 145/159/147 157/167/147 146/160/147
f 146/160/148 158/168/148 147/162/148
f 147/162/149 159/169/149 148/165/149
f 141/147/150 151/170/150 152/171/150
f 149/146/151 159/169/151 160/172/151
f 141/147/152 153/173/152 142/148/152
f 149/146/153 161/174/153 150/149/153
f 143/150/154 153/173/154 154/175/154
f 144/158/155 154/175/155 155/176/155
f 145/159/156 155/176/156 156/177/157
f 153/173/158 163/178/158 164/179/158
f 161/174/159 171/180/159 172/181/159
f 153/173/160 165/182/160 154/175/160
f 155/176/161 165/182/161 166/183/161
f 155/176/162 167/184/162 156/177/163
f 156/177/164 168/185/164 157/167/165
f 157/167/166 169/186/166 158/168/166
f 159/169/167 169/186/167 170/187/167
f 151/170/168 163/178/168 152/171/168
f 159/169/169 171/180/169 160/172/169
f 168/185/170 387/188/170 383/189/170
f 169/186/171 168/185/171 383/190/171
f 169/186/172 176/191/172 170/187/172
f 162/192/173 174/193/173 163/178/173
f 170/187/174 177/194/174 171/180/174
f 164/179/175 174/193/175 175/195/175
f 172/181/176 177/194/176 178/196/176
f 165/182/177 175/195/177 384/197/177
f 166/183/178 387/188/178 167/184/178
f 178/196/179 183/198/179 184/199/179
f 395/200/180 383/152/180 178/196/180
f 179/201/181 173/202/181 396/203/181
f 176/191/182 383/190/182 182/204/182
f 173/202/183 180/205/183 174/193/183
f 177/194/184 182/204/184 183/198/184
f 174/193/185 181/206/185 175/195/185
f 182/204/186 395/207/186 188/208/186
f 179/201/187 186/209/187 180/205/187
f 182/204/188 189/210/188 183/198/188
f 181/206/189 186/209/189 187/211/189
f 184/199/190 189/210/190 190/212/190
f 181/206/191 396/213/191 384/214/191
f 333/215/192 380/216/192 332/217/192
f 384/197/193 166/183/193 165/182/193
f 378/218/194 292/219/194 291/220/194
f 382/221/195 193/222/195 199/223/195
f 395/207/196 194/224/196 188/208/196
f 185/225/197 192/226/197 186/209/197
f 189/210/198 194/224/198 195/227/198
f 186/209/199 193/222/199 187/211/199
f 190/212/200 195/227/200 196/228/200
f 396/213/191 193/222/191 382/229/191
f 194/224/201 381/230/201 200/231/201
f 191/232/202 198/233/202 192/226/202
f 194/224/203 201/234/203 195/227/203
f 193/222/204 198/233/204 199/223/204
f 196/228/205 201/234/205 202/235/205
f 380/216/206 319/236/206 325/237/206
f 207/238/207 382/221/207 206/239/207
f 388/240/208 207/238/208 208/241/208
f 388/240/209 209/242/209 381/243/209
f 381/230/210 209/242/210 210/244/210
f 203/245/211 197/246/211 382/247/211
f 200/231/212 210/244/212 211/248/212
f 197/246/213 204/249/213 198/233/213
f 200/231/214 212/250/214 201/234/214
f 199/223/215 204/249/215 205/251/215
f 202/235/216 212/250/216 213/252/216
f 199/223/217 206/239/217 382/221/217
f 381/253/180 395/200/180 202/235/180
f 211/248/218 221/254/218 222/255/218
f 203/245/219 215/256/219 204/249/219
f 212/250/220 222/255/220 223/257/220
f 204/249/221 216/258/221 205/251/221
f 213/252/222 223/257/222 224/259/222
f 205/251/223 217/260/223 206/239/223
f 207/238/224 217/260/224 218/261/224
f 208/241/225 218/261/225 219/262/225
f 208/241/226 220/263/226 209/242/226
f 209/242/227 221/254/227 210/244/227
f 219/262/228 229/155/228 230/264/228
f 219/262/229 231/265/229 220/263/230
f 220/263/231 232/266/231 221/254/231
f 222/255/232 232/266/232 233/267/232
f 214/268/233 226/269/233 215/256/233
f 223/257/234 233/267/234 234/270/234
f 215/256/235 227/271/235 216/258/235
f 224/259/236 234/270/236 235/272/236
f 216/258/237 228/156/237 217/260/237
f 218/261/238 228/156/238 229/155/238
f 225/273/239 237/274/239 226/269/239
f 233/267/240 240/275/240 234/270/240
f 227/271/241 237/274/241 238/276/241
f 235/272/242 240/275/242 241/277/242
f 228/156/243 238/276/243 382/154/243
f 229/155/244 388/278/244 230/264/244
f 231/265/245 388/278/245 381/279/245
f 232/266/246 231/265/246 381/280/246
f 232/266/247 239/281/247 233/267/247
f 242/282/248 236/283/248 392/284/248
f 239/281/249 381/280/249 245/285/249
f 236/283/250 243/286/250 237/274/250
f 239/281/251 246/287/251 240/275/251
f 238/276/252 243/286/252 244/288/252
f 241/277/253 246/287/253 247/289/253
f 391/290/254 381/253/254 241/277/254
f 245/285/255 252/291/255 246/287/255
f 244/288/256 249/292/256 250/293/256
f 247/289/257 252/291/257 253/294/257
f 244/288/258 392/295/258 382/296/258
f 384/151/259 130/132/259 136/141/259
f 245/285/260 391/297/260 251/298/260
f 242/282/261 249/292/261 243/286/261
f 144/158/262 384/151/262 143/150/262
f 378/144/263 256/299/263 262/300/263
f 391/297/264 257/301/264 251/298/264
f 248/302/265 255/303/265 249/292/265
f 251/298/266 258/304/266 252/291/266
f 250/293/267 255/303/267 256/299/267
f 253/294/268 258/304/268 259/305/268
f 392/295/258 256/299/258 378/306/258
f 244/288/269 382/154/269 238/276/269
f 380/307/270 355/308/270 354/309/270
f 259/305/271 264/310/271 265/311/271
f 370/312/272 380/307/272 364/313/272
f 257/301/273 377/314/273 263/315/273
f 254/316/274 261/317/274 255/303/274
f 258/304/275 263/315/275 264/310/275
f 255/303/276 262/300/276 256/299/276
f 377/314/277 272/318/277 273/319/277
f 266/320/278 260/321/278 378/322/278
f 263/315/279 273/319/279 274/323/279
f 260/321/280 267/324/280 261/317/280
f 264/310/281 274/323/281 275/325/281
f 261/317/282 268/326/282 262/300/282
f 265/311/283 275/325/283 276/327/283
f 262/300/284 269/145/284 378/144/284
f 377/328/254 391/290/254 265/311/254
f 385/329/285 270/143/285 271/330/285
f 385/329/286 272/318/286 377/331/286
f 268/326/287 280/332/287 269/145/287
f 270/143/288 280/332/288 281/333/288
f 271/330/289 281/333/289 282/334/289
f 271/330/290 283/335/290 272/318/290
f 272/318/291 284/336/291 273/319/291
f 274/323/292 284/336/292 285/337/292
f 266/320/293 278/338/293 267/324/293
f 274/323/294 286/339/294 275/325/294
f 268/326/295 278/338/295 279/340/295
f 276/327/296 286/339/296 287/341/296
f 283/335/297 295/342/297 284/336/297
f 285/337/298 295/342/298 296/343/298
f 277/344/299 289/345/299 278/338/299
f 285/337/300 297/346/300 286/339/300
f 279/340/301 289/345/301 290/347/301
f 287/341/302 297/346/302 298/348/302
f 279/340/303 291/220/303 280/332/303
f 281/333/304 291/220/304 292/219/304
f 282/334/305 292/219/305 293/349/305
f 282/334/306 294/350/306 283/335/306
f 292/219/307 385/351/307 293/349/307
f 294/350/308 385/351/308 377/352/308
f 295/342/309 294/350/309 377/353/309
f 295/342/310 302/354/310 296/343/310
f 288/355/311 300/356/311 289/345/311
f 296/343/312 303/357/312 297/346/312
f 290/347/313 300/356/313 301/358/313
f 298/348/314 303/357/314 304/359/314
f 291/220/315 301/358/315 378/218/315
f 305/360/316 299/361/316 394/362/316
f 302/354/317 377/353/317 308/363/317
f 299/361/318 306/364/318 300/356/318
f 302/354/319 309/365/319 303/357/319
f 301/358/320 306/364/320 307/366/320
f 304/359/321 309/365/321 310/367/321
f 378/218/322 301/358/322 307/366/322
f 393/368/323 377/328/323 304/359/323
f 308/363/324 393/369/324 314/370/324
f 305/360/325 312/371/325 306/364/325
f 308/363/326 315/372/326 309/365/326
f 307/366/327 312/371/327 313/373/327
f 310/367/328 315/372/328 316/374/328
f 307/366/329 394/375/329 378/376/329
f 393/377/330 320/378/330 314/379/330
f 311/380/331 318/381/331 312/382/331
f 314/379/332 321/383/332 315/384/332
f 313/385/333 318/381/333 319/236/333
f 316/386/334 321/383/334 322/387/334
f 394/388/329 319/236/329 380/389/329
f 320/378/335 379/390/335 326/391/335
f 317/392/336 324/393/336 318/381/336
f 320/378/337 327/394/337 321/383/337
f 319/236/338 324/393/338 325/237/338
f 322/387/339 327/394/339 328/395/339
f 181/206/340 384/197/340 175/195/340
f 327/394/341 337/396/341 338/397/341
f 324/393/342 331/398/342 325/237/342
f 328/395/343 338/397/343 339/399/343
f 325/237/344 332/217/344 380/216/344
f 379/400/323 393/401/323 328/395/323
f 386/402/345 333/215/345 334/403/345
f 386/402/346 335/404/346 379/405/346
f 379/390/347 335/404/347 336/406/347
f 329/407/348 323/408/348 380/409/348
f 326/391/349 336/406/349 337/396/349
f 323/408/350 330/410/350 324/393/350
f 334/403/351 346/411/351 335/404/351
f 335/404/352 347/412/352 336/406/352
f 337/396/353 347/412/353 348/413/353
f 329/407/354 341/414/354 330/410/354
f 337/396/355 349/415/355 338/397/355
f 331/398/356 341/414/356 342/416/356
f 339/399/357 349/415/357 350/417/357
f 331/398/358 343/418/358 332/217/358
f 333/215/359 343/418/359 344/419/359
f 334/403/360 344/419/360 345/420/360
f 342/416/361 352/421/361 353/422/361
f 350/417/362 360/423/362 361/424/362
f 342/416/363 354/309/363 343/418/363
f 344/419/364 354/309/364 355/308/364
f 345/420/365 355/308/365 356/425/365
f 345/420/366 357/426/366 346/411/366
f 346/411/367 358/427/367 347/412/367
f 348/413/368 358/427/368 359/428/368
f 340/429/369 352/421/369 341/414/369
f 348/413/370 360/423/370 349/415/370
f 357/426/371 386/430/371 379/431/371
f 358/427/372 357/426/372 379/432/372
f 358/427/373 365/433/373 359/428/373
f 351/434/374 363/435/374 352/421/374
f 359/428/375 366/436/375 360/423/375
f 353/422/376 363/435/376 364/313/376
f 361/424/377 366/436/377 367/437/377
f 354/309/378 364/313/378 380/307/378
f 355/308/379 386/430/379 356/425/379
f 366/436/380 373/438/380 367/437/380
f 389/153/139 379/400/139 367/437/139
f 368/439/381 362/440/381 390/164/381
f 365/433/382 379/432/382 371/441/382
f 363/435/383 368/439/383 369/442/383
f 365/433/384 372/443/384 366/436/384
f 364/313/385 369/442/385 370/312/385
f 371/441/386 389/123/386 127/125/386
f 368/439/387 374/126/387 369/442/387
f 371/441/388 375/130/388 372/443/388
f 370/312/389 374/126/389 126/131/389
f 373/438/390 375/130/390 376/134/390
f 370/312/128 390/135/128 380/444/128
f 389/123/391 383/445/391 131/124/391
f 374/126/124 125/163/124 128/127/124
f 127/125/125 131/124/125 132/129/125
f 126/131/126 374/126/126 129/128/126
f 375/130/127 132/129/127 133/133/127
f 390/135/392 126/131/392 130/132/392
f 128/127/130 134/166/130 135/139/130
f 131/124/131 137/138/131 138/140/131
f 130/132/132 129/128/132 135/139/132
f 133/133/133 132/129/133 138/140/133
f 137/138/135 148/165/135 149/146/135
f 136/141/136 135/139/136 141/147/136
f 139/142/137 138/140/137 149/146/137
f 136/141/393 142/148/393 143/150/393
f 376/134/394 133/133/394 389/153/394
f 133/133/395 139/142/395 389/153/395
f 139/142/396 150/149/396 383/152/396
f 150/149/397 161/174/397 383/152/397
f 387/157/142 384/446/142 144/158/142
f 387/157/398 145/159/398 146/160/398
f 390/164/399 384/447/399 134/166/399
f 384/447/400 151/170/400 140/448/400
f 134/166/401 384/447/401 140/448/401
f 134/166/402 128/127/402 390/164/402
f 137/138/403 383/137/403 147/162/403
f 134/166/146 140/448/146 141/147/146
f 145/159/147 156/177/404 157/167/147
f 146/160/148 157/167/148 158/168/148
f 147/162/149 158/168/149 159/169/149
f 141/147/150 140/448/150 151/170/150
f 149/146/151 148/165/151 159/169/151
f 141/147/152 152/171/152 153/173/152
f 149/146/153 160/172/153 161/174/153
f 143/150/154 142/148/154 153/173/154
f 144/158/155 143/150/155 154/175/155
f 145/159/156 144/158/156 155/176/156
f 153/173/158 152/171/158 163/178/158
f 161/174/159 160/172/159 171/180/159
f 153/173/160 164/179/160 165/182/160
f 155/176/161 154/175/161 165/182/161
f 155/176/162 166/183/162 167/184/162
f 156/177/164 167/184/164 168/185/164
f 157/167/166 168/185/166 169/186/166
f 159/169/167 158/168/167 169/186/167
f 151/170/168 162/192/168 163/178/168
f 159/169/169 170/187/169 171/180/169
f 168/185/405 167/184/405 387/188/405
f 169/186/406 383/190/406 176/191/406
f 162/192/173 173/202/173 174/193/173
f 170/187/174 176/191/174 177/194/174
f 164/179/175 163/178/175 174/193/175
f 172/181/176 171/180/176 177/194/176
f 165/182/407 164/179/407 175/195/407
f 166/183/170 384/449/170 387/188/170
f 178/196/179 177/194/179 183/198/179
f 161/174/408 172/181/408 383/152/408
f 172/181/409 178/196/409 383/152/409
f 178/196/410 184/199/410 395/200/410
f 184/199/411 190/212/411 395/200/411
f 151/170/412 384/447/412 162/192/412
f 384/447/413 396/203/413 173/202/413
f 162/192/414 384/447/414 173/202/414
f 396/203/415 185/225/415 179/201/415
f 173/202/183 179/201/183 180/205/183
f 177/194/184 176/191/184 182/204/184
f 174/193/185 180/205/185 181/206/185
f 182/204/416 383/450/416 395/207/416
f 179/201/187 185/225/187 186/209/187
f 182/204/188 188/208/188 189/210/188
f 181/206/189 180/205/189 186/209/189
f 184/199/190 183/198/190 189/210/190
f 181/206/417 187/211/417 396/213/417
f 395/207/416 381/451/416 194/224/416
f 185/225/197 191/232/197 192/226/197
f 189/210/198 188/208/198 194/224/198
f 186/209/199 192/226/199 193/222/199
f 190/212/200 189/210/200 195/227/200
f 396/213/418 187/211/418 193/222/418
f 191/232/202 197/246/202 198/233/202
f 194/224/203 200/231/203 201/234/203
f 193/222/204 192/226/204 198/233/204
f 196/228/205 195/227/205 201/234/205
f 388/240/209 382/452/209 207/238/209
f 388/240/419 208/241/419 209/242/419
f 185/225/420 396/203/420 191/232/420
f 396/203/413 382/247/413 197/246/413
f 191/232/421 396/203/421 197/246/421
f 382/247/422 214/268/422 203/245/422
f 200/231/423 381/230/423 210/244/423
f 197/246/213 203/245/213 204/249/213
f 200/231/214 211/248/214 212/250/214
f 199/223/215 198/233/215 204/249/215
f 202/235/216 201/234/216 212/250/216
f 199/223/424 205/251/424 206/239/424
f 190/212/425 196/228/425 395/200/425
f 196/228/426 202/235/426 395/200/426
f 202/235/427 213/252/427 381/253/427
f 213/252/428 224/259/428 381/253/428
f 211/248/218 210/244/218 221/254/218
f 203/245/219 214/268/219 215/256/219
f 212/250/220 211/248/220 222/255/220
f 204/249/221 215/256/221 216/258/221
f 213/252/222 212/250/222 223/257/222
f 205/251/223 216/258/223 217/260/223
f 207/238/224 206/239/224 217/260/224
f 208/241/225 207/238/225 218/261/225
f 208/241/226 219/262/226 220/263/226
f 209/242/227 220/263/227 221/254/227
f 219/262/228 218/261/429 229/155/228
f 219/262/229 230/264/229 231/265/229
f 220/263/231 231/265/231 232/266/231
f 222/255/232 221/254/232 232/266/232
f 214/268/233 225/273/233 226/269/233
f 223/257/234 222/255/234 233/267/234
f 215/256/235 226/269/235 227/271/235
f 224/259/236 223/257/236 234/270/236
f 216/258/237 227/271/237 228/156/237
f 218/261/238 217/260/238 228/156/238
f 225/273/239 236/283/239 237/274/239
f 233/267/240 239/281/240 240/275/240
f 227/271/241 226/269/241 237/274/241
f 235/272/242 234/270/242 240/275/242
f 228/156/430 227/271/430 238/276/430
f 229/155/245 382/453/245 388/278/245
f 231/265/431 230/264/431 388/278/431
f 232/266/432 381/280/432 239/281/432
f 214/268/433 382/247/433 225/273/433
f 382/247/434 392/284/434 236/283/434
f 225/273/435 382/247/435 236/283/435
f 392/284/436 248/302/436 242/282/436
f 236/283/250 242/282/250 243/286/250
f 239/281/251 245/285/251 246/287/251
f 238/276/252 237/274/252 243/286/252
f 241/277/253 240/275/253 246/287/253
f 224/259/437 235/272/437 381/253/437
f 235/272/438 241/277/438 381/253/438
f 241/277/439 247/289/439 391/290/439
f 247/289/440 253/294/440 391/290/440
f 245/285/255 251/298/255 252/291/255
f 244/288/256 243/286/256 249/292/256
f 247/289/257 246/287/257 252/291/257
f 244/288/441 250/293/441 392/295/441
f 245/285/442 381/454/442 391/297/442
f 242/282/261 248/302/261 249/292/261
f 391/297/442 377/455/442 257/301/442
f 248/302/265 254/316/265 255/303/265
f 251/298/266 257/301/266 258/304/266
f 250/293/267 249/292/267 255/303/267
f 253/294/268 252/291/268 258/304/268
f 392/295/443 250/293/443 256/299/443
f 259/305/271 258/304/271 264/310/271
f 254/316/274 260/321/274 261/317/274
f 258/304/275 257/301/275 263/315/275
f 255/303/276 261/317/276 262/300/276
f 248/302/444 392/284/444 254/316/444
f 392/284/434 378/322/434 260/321/434
f 254/316/445 392/284/445 260/321/445
f 378/322/446 277/344/446 266/320/446
f 263/315/447 377/314/447 273/319/447
f 260/321/280 266/320/280 267/324/280
f 264/310/281 263/315/281 274/323/281
f 261/317/282 267/324/282 268/326/282
f 265/311/283 264/310/283 275/325/283
f 262/300/448 268/326/448 269/145/448
f 253/294/449 259/305/449 391/290/449
f 259/305/450 265/311/450 391/290/450
f 265/311/451 276/327/451 377/328/451
f 276/327/452 287/341/452 377/328/452
f 385/329/286 378/456/286 270/143/286
f 385/329/453 271/330/453 272/318/453
f 268/326/287 279/340/287 280/332/287
f 270/143/288 269/145/288 280/332/288
f 271/330/289 270/143/289 281/333/289
f 271/330/290 282/334/290 283/335/290
f 272/318/291 283/335/291 284/336/291
f 274/323/292 273/319/292 284/336/292
f 266/320/293 277/344/293 278/338/293
f 274/323/294 285/337/294 286/339/294
f 268/326/295 267/324/295 278/338/295
f 276/327/296 275/325/296 286/339/296
f 283/335/297 294/350/297 295/342/297
f 285/337/298 284/336/298 295/342/298
f 277/344/299 288/355/299 289/345/299
f 285/337/300 296/343/300 297/346/300
f 279/340/301 278/338/301 289/345/301
f 287/341/302 286/339/302 297/346/302
f 279/340/303 290/347/303 291/220/303
f 281/333/304 280/332/304 291/220/304
f 282/334/305 281/333/305 292/219/305
f 282/334/306 293/349/306 294/350/306
f 292/219/308 378/457/308 385/351/308
f 294/350/454 293/349/454 385/351/454
f 295/342/455 377/353/455 302/354/455
f 288/355/311 299/361/311 300/356/311
f 296/343/312 302/354/312 303/357/312
f 290/347/313 289/345/313 300/356/313
f 298/348/314 297/346/314 303/357/314
f 291/220/456 290/347/456 301/358/456
f 277/344/457 378/322/457 288/355/457
f 378/322/458 394/362/458 299/361/458
f 288/355/459 378/322/459 299/361/459
f 394/362/460 311/458/460 305/360/460
f 299/361/318 305/360/318 306/364/318
f 302/354/319 308/363/319 309/365/319
f 301/358/320 300/356/320 306/364/320
f 304/359/321 303/357/321 309/365/321
f 287/341/461 298/348/461 377/328/461
f 298/348/462 304/359/462 377/328/462
f 304/359/463 310/367/463 393/368/463
f 310/367/464 316/374/464 393/368/464
f 308/363/465 377/459/465 393/369/465
f 305/360/325 311/458/325 312/371/325
f 308/363/326 314/370/326 315/372/326
f 307/366/327 306/364/327 312/371/327
f 310/367/328 309/365/328 315/372/328
f 307/366/466 313/373/466 394/375/466
f 393/377/465 379/460/465 320/378/465
f 311/380/331 317/392/331 318/381/331
f 314/379/332 320/378/332 321/383/332
f 313/385/333 312/382/333 318/381/333
f 316/386/334 315/384/334 321/383/334
f 394/388/467 313/385/467 319/236/467
f 317/392/336 323/408/336 324/393/336
f 320/378/337 326/391/337 327/394/337
f 319/236/338 318/381/338 324/393/338
f 322/387/339 321/383/339 327/394/339
f 327/394/341 326/391/341 337/396/341
f 324/393/342 330/410/342 331/398/342
f 328/395/343 327/394/343 338/397/343
f 325/237/468 331/398/468 332/217/468
f 316/386/469 322/387/469 393/401/469
f 322/387/470 328/395/470 393/401/470
f 328/395/471 339/399/471 379/400/471
f 339/399/472 350/417/472 379/400/472
f 386/402/346 380/461/346 333/215/346
f 386/402/473 334/403/473 335/404/473
f 311/380/474 394/462/474 317/392/474
f 394/462/458 380/409/458 323/408/458
f 317/392/475 394/462/475 323/408/475
f 380/409/476 340/429/476 329/407/476
f 326/391/477 379/390/477 336/406/477
f 323/408/350 329/407/350 330/410/350
f 334/403/351 345/420/351 346/411/351
f 335/404/352 346/411/352 347/412/352
f 337/396/353 336/406/353 347/412/353
f 329/407/354 340/429/354 341/414/354
f 337/396/355 348/413/355 349/415/355
f 331/398/356 330/410/356 341/414/356
f 339/399/357 338/397/357 349/415/357
f 331/398/358 342/416/358 343/418/358
f 333/215/359 332/217/359 343/418/359
f 334/403/360 333/215/360 344/419/360
f 342/416/361 341/414/361 352/421/361
f 350/417/362 349/415/362 360/423/362
f 342/416/363 353/422/363 354/309/363
f 344/419/364 343/418/364 354/309/364
f 345/420/365 344/419/365 355/308/365
f 345/420/366 356/425/366 357/426/366
f 346/411/367 357/426/367 358/427/367
f 348/413/368 347/412/368 358/427/368
f 340/429/369 351/434/369 352/421/369
f 348/413/370 359/428/370 360/423/370
f 357/426/478 356/425/478 386/430/478
f 358/427/479 379/432/479 365/433/479
f 351/434/374 362/440/374 363/435/374
f 359/428/375 365/433/375 366/436/375
f 353/422/376 352/421/376 363/435/376
f 361/424/377 360/423/377 366/436/377
f 354/309/480 353/422/480 364/313/480
f 355/308/371 380/463/371 386/430/371
f 366/436/380 372/443/380 373/438/380
f 350/417/481 361/424/481 379/400/481
f 361/424/482 367/437/482 379/400/482
f 367/437/483 373/438/483 389/153/483
f 373/438/484 376/134/484 389/153/484
f 340/429/485 380/409/485 351/434/485
f 380/409/399 390/164/399 362/440/399
f 351/434/486 380/409/486 362/440/486
f 390/164/487 125/163/487 368/439/487
f 363/435/383 362/440/383 368/439/383
f 365/433/384 371/441/384 372/443/384
f 364/313/385 363/435/385 369/442/385
f 371/441/391 379/464/391 389/123/391
f 368/439/387 125/163/387 374/126/387
f 371/441/388 127/125/388 375/130/388
f 370/312/389 369/442/389 374/126/389
f 373/438/390 372/443/390 375/130/390
f 370/312/488 126/131/488 390/135/488
f 401/465/489 397/466/490 398/467/491
f 403/468/492 405/469/493 404/470/494
f 409/471/492 407/472/495 410/473/494
f 416/474/496 404/475/494 413/476/497
f 405/477/493 406/478/498 415/479/499
f 413/476/497 400/480/500 399/481/501
f 411/482/502 398/467/491 397/483/490
f 416/474/496 406/478/498 403/484/492
f 414/485/503 404/475/494 405/477/493
f 412/486/504 408/487/498 409/488/492
f 407/489/495 416/474/496 410/490/494
f 400/480/500 401/465/489 399/481/501
f 401/465/489 402/491/505 397/466/490
f 403/468/492 406/492/498 405/469/493
f 409/471/492 408/493/498 407/472/495
f 412/486/504 409/488/492 410/490/494
f 416/474/496 403/484/492 404/475/494
f 412/486/504 410/490/494 416/474/496
f 401/465/489 398/467/491 416/474/496
f 398/467/491 412/486/504 416/474/496
f 413/476/497 399/481/501 416/474/496
f 399/481/501 401/465/489 416/474/496
f 415/479/499 407/489/495 408/494/498
f 408/494/498 411/495/502 415/479/499
f 411/495/502 397/466/490 415/479/499
f 397/466/490 402/491/505 415/479/499
f 402/491/505 400/480/500 415/479/499
f 400/480/500 414/485/503 415/479/499
f 414/485/503 405/477/493 415/479/499
f 413/476/497 414/485/503 400/480/500
f 411/482/502 412/486/504 398/467/491
f 416/474/496 415/479/499 406/478/498
f 414/485/503 413/476/497 404/475/494
f 412/486/504 411/482/502 408/487/498
f 407/489/495 415/479/499 416/474/496
f 400/480/500 402/491/505 401/465/489
l 121 122
